<svg width="622" height="39" viewBox="0 0 622 39" fill="none" xmlns="http://www.w3.org/2000/svg">
<path d="M379.035 37.8215C368.955 37.8215 356.858 37.4373 352.826 36.797C348.794 36.4128 348.794 36.0286 348.794 35.6444C322.585 36.1567 300.409 36.669 290.328 37.0532C276.216 37.5654 260.087 37.3092 250.007 36.5409C239.927 35.7725 243.959 34.62 256.055 33.9797C268.151 33.3394 282.264 32.699 298.392 32.0587H296.376C282.264 32.1868 268.152 31.8026 262.103 30.9062C256.055 30.0097 262.103 29.1133 274.2 28.6011C284.28 28.0888 296.376 27.7046 306.457 27.3205C296.376 27.5766 284.28 27.8328 274.2 28.0889C209.686 29.4976 143.156 31.0342 74.6097 32.1868C60.4973 32.4429 44.369 31.9307 38.3209 31.0343C32.2727 30.1378 38.3208 29.1133 52.4332 28.6011C56.4653 28.473 60.4973 28.345 64.5294 28.2169C54.4491 28.345 44.3688 28.3449 34.2885 28.3449C22.1921 28.3449 10.0959 27.8327 6.06379 27.0643C2.03167 26.296 6.06379 25.3996 16.1441 24.8874C76.6259 21.8139 143.156 19.6368 203.638 17.972C149.204 18.8685 94.7704 20.021 40.3367 21.1736C24.2083 21.5577 8.07991 21.0455 2.03173 20.021C-4.01645 19.1245 4.04785 17.972 18.1603 17.5879C48.4012 16.6914 80.6581 15.9231 112.915 15.2828C102.835 15.1547 94.7704 14.8986 90.7382 14.3863C82.674 13.618 84.6901 12.5934 96.7865 11.9531C108.883 11.1848 122.995 10.5445 137.108 10.0322C125.011 10.0322 114.931 10.0322 102.835 10.0322C92.7544 10.0322 84.6902 9.64803 78.6421 9.13579C72.5939 8.62354 72.5938 7.98328 76.6259 7.34298C86.7062 5.80625 110.899 5.03788 120.979 4.78176C129.043 4.52564 135.092 4.39757 143.156 4.14145C139.124 3.88533 135.092 3.50116 133.076 3.11698C129.044 2.09249 139.124 1.06794 155.252 0.811819C221.782 -0.0846081 272.184 -0.212622 336.697 0.299622C350.81 0.427683 360.89 1.196 362.906 2.09243C362.906 2.47661 362.906 2.86086 358.874 3.11698C366.939 2.98892 372.987 2.98887 381.051 2.98887C395.163 2.86081 409.276 3.50116 413.308 4.39759C417.34 5.29402 409.276 6.31849 395.163 6.70267C381.051 7.08686 366.939 7.47099 350.81 7.85518C413.308 7.34293 477.822 7.21492 540.32 7.34298C554.432 7.34298 566.528 7.9833 568.544 8.87973C568.544 9.00779 568.544 9.1358 568.544 9.39192C574.593 9.39192 582.657 9.26389 588.705 9.26389C602.817 9.13583 616.93 9.77611 620.962 10.6725C624.994 11.569 616.93 12.5934 602.818 12.9776C546.368 14.3863 487.902 15.6669 429.436 16.8194C457.661 16.4353 487.902 16.0511 516.127 15.795C532.255 15.6669 546.368 16.1792 550.4 17.2037C554.432 18.1001 546.368 19.1246 532.256 19.5088H530.239C546.368 19.3807 562.496 19.2527 578.625 19.1246C594.753 18.9965 606.85 19.6368 610.882 20.6613C614.914 21.6858 604.834 22.5822 590.721 22.8383C576.609 23.2225 560.48 23.4786 546.368 23.8628C560.48 23.7347 574.593 24.375 578.625 25.1434C582.657 26.0398 576.609 26.9363 564.512 27.4486C548.384 27.9608 526.207 28.7292 502.015 29.3695C493.95 29.6256 485.886 29.8817 477.822 30.1378C485.886 30.3939 493.95 30.7781 495.966 31.4184C497.982 31.6746 497.982 31.9306 497.982 32.1868C506.047 32.4429 512.095 32.8271 514.111 33.3394C518.143 34.3638 510.079 35.3884 493.95 35.7725L381.051 38.0776C385.083 37.8215 381.051 37.8215 379.035 37.8215Z" fill="#EFB5A6"/>
<path d="M79.816 8.87327L79.172 15.4533L78.332 16.2093L80.936 17.6653V24.5813L76.988 27.0453L68.868 25.0013L69.596 22.1453L76.512 23.9093L78.024 22.9573V19.3733L73.404 16.7133L76.344 14.0253L76.736 10.6093L75.308 9.93727L71.836 11.0853L70.912 8.34127L75.532 6.80127L79.816 8.87327ZM93.1987 7.41727L97.0347 18.6453L99.7507 26.5693L96.9787 27.4933L95.0747 21.9213L87.6547 23.1253L86.0587 27.5213L83.3147 26.5413L84.3227 23.6853L83.6507 23.7973L83.1747 20.9133L85.4707 20.5493L90.1747 7.41727H93.1987ZM88.7747 19.9893L94.1227 19.1213L91.6307 11.9253L88.7747 19.9893ZM113.497 8.62127L105.741 18.5333H104.397L103.613 26.9893L100.729 26.8493V7.33327H103.641V15.6213H104.313L111.229 6.82927L113.497 8.62127ZM105.517 15.7613L111.173 17.8053L114.421 26.3453L111.733 27.3813L108.933 20.0733L104.537 18.4493L105.517 15.7613ZM125.874 7.41727L129.71 18.6453L132.426 26.5693L129.654 27.4933L127.75 21.9213L120.33 23.1253L118.734 27.5213L115.99 26.5413L116.998 23.6853L116.326 23.7973L115.85 20.9133L118.146 20.5493L122.85 7.41727H125.874ZM121.45 19.9893L126.798 19.1213L124.306 11.9253L121.45 19.9893ZM144.056 7.66927H146.968V13.9693L153.464 7.33327L155.536 9.34927L148.648 16.3773L153.632 17.6653L157.132 26.3733L154.444 27.4653L151.476 20.1293L146.968 18.9533V26.9053H144.056V18.8973L139.296 20.0173L136.58 27.4093L133.864 26.4293L137.112 17.5253L142.292 16.3213L135.628 9.43327L137.756 7.41727L144.056 13.9413V7.66927ZM173.29 26.7653L170.378 27.0453L169.23 15.1173L160.578 27.1853L157.974 7.86527L160.858 7.47327L162.482 19.5413L171.386 7.13727L173.29 26.7653ZM196.574 7.38927L197.414 26.7093L194.53 26.8493L193.802 10.3013H185.878L185.262 26.8213L182.378 26.7373L183.078 7.38927H196.574ZM209.151 7.16527L216.403 12.7373L211.643 20.2413L205.203 18.0013V27.1573H202.291V16.9653L199.659 16.0413L200.611 13.2973L202.291 13.8853V7.16527H209.151ZM210.439 16.7693L212.539 13.4093L208.171 10.0773H205.203V14.8933L210.439 16.7693ZM225.078 7.41727L228.914 18.6453L231.63 26.5693L228.858 27.4933L226.954 21.9213L219.534 23.1253L217.938 27.5213L215.194 26.5413L216.202 23.6853L215.53 23.7973L215.054 20.9133L217.35 20.5493L222.054 7.41727H225.078ZM220.654 19.9893L226.002 19.1213L223.51 11.9253L220.654 19.9893ZM244.015 8.87327L243.371 15.4533L242.531 16.2093L245.135 17.6653V24.5813L241.187 27.0453L233.067 25.0013L233.795 22.1453L240.711 23.9093L242.223 22.9573V19.3733L237.603 16.7133L240.543 14.0253L240.935 10.6093L239.507 9.93727L236.035 11.0853L235.111 8.34127L239.731 6.80127L244.015 8.87327ZM263.922 7.36127L263.138 23.9653H267.702L267.03 31.5533L264.118 31.3013L264.51 26.8773H260.114L260.87 10.2453H253.982L254.766 19.1493L252.666 25.5053L250.286 26.9053L250.986 30.9653L248.13 31.4413L247.122 25.4213L250.23 23.5453L251.826 18.8133L250.762 7.36127H263.922ZM272.298 7.36127V26.9053H269.386V7.36127H272.298ZM283.694 7.36127V26.9053H280.81V7.36127H283.694ZM271.43 18.3093L271.038 15.4253L276.778 14.6693L282.462 15.4253L282.07 18.3093L276.778 17.6093L271.43 18.3093ZM300.685 26.7653L297.773 27.0453L296.625 15.1173L287.973 27.1853L285.369 7.86527L288.253 7.47327L289.877 19.5413L298.781 7.13727L300.685 26.7653ZM315.54 8.62127L307.784 18.5333H306.44L305.656 26.9893L302.772 26.8493V7.33327H305.684V15.6213H306.356L313.272 6.82927L315.54 8.62127ZM307.56 15.7613L313.216 17.8053L316.464 26.3453L313.776 27.3813L310.976 20.0733L306.58 18.4493L307.56 15.7613ZM339.089 7.38927L339.929 26.7093L337.045 26.8493L336.317 10.3013H328.393L327.777 26.8213L324.893 26.7373L325.593 7.38927H339.089ZM351.667 7.16527L358.919 12.7373L354.159 20.2413L347.719 18.0013V27.1573H344.807V16.9653L342.175 16.0413L343.127 13.2973L344.807 13.8853V7.16527H351.667ZM352.955 16.7693L355.055 13.4093L350.687 10.0773H347.719V14.8933L352.955 16.7693ZM371.851 6.77327L372.999 26.8493L370.087 27.0173L369.499 18.3373L365.075 18.9253L363.507 20.2133L362.723 27.0733L359.839 26.7373L360.735 18.7293L363.815 16.1533H363.899L360.875 15.2293L360.175 9.74127L363.899 6.35327L371.851 6.77327ZM369.387 14.7253L369.079 9.54527L364.963 9.32127L363.255 10.8893L363.535 12.9893L369.387 14.7253ZM394.42 7.30527L395.848 26.8213L392.936 27.0173L391.872 11.9533L386.776 25.9533L383.164 25.8693L378.824 12.6253L377.844 27.0173L374.988 26.8213L376.276 7.36127H380.196L385.04 22.2293L390.444 7.30527H394.42ZM412.057 8.73327L414.969 20.8853L408.333 27.4933H402.901L396.405 20.6053L399.737 9.23727L405.729 6.15727L412.057 8.73327ZM404.161 24.6093H407.129L411.777 19.9613L409.593 10.8613L405.869 9.34927L402.173 11.2253L399.653 19.8213L404.161 24.6093ZM435.258 7.30527L438.366 10.4693L436.294 12.4853L434.054 10.1613H428.51L425.654 17.3293L428.594 24.0493H433.634L437.806 20.5493L439.654 22.7613L434.67 26.9053H426.718L422.546 17.3853L426.55 7.30527H435.258ZM452.614 7.33327V10.2453H445.194L446.51 15.3413H450.29V18.2533H444.662L444.186 23.9653H452.446V26.8773H441.05L441.974 15.3413H443.514L441.442 7.33327H452.614ZM467.409 7.19327L469.257 26.7653L466.401 27.0453L465.225 15.1733L456.629 27.1853L454.025 7.92127L456.909 7.52927L458.505 19.5973L467.409 7.19327ZM465.309 4.42127L460.185 11.2813L458.869 4.08527L461.725 3.55327L461.837 4.22527L462.985 2.68527L465.309 4.42127ZM484.982 7.30527V26.7653H482.07V18.7013L475.77 20.6333L471.094 15.8733V7.30527H474.006V14.6973L476.61 17.3293L481.174 15.9293L482.098 7.16527L484.982 7.30527ZM497.285 7.41727L501.121 18.6453L503.837 26.5693L501.065 27.4933L499.161 21.9213L491.741 23.1253L490.145 27.5213L487.401 26.5413L488.409 23.6853L487.737 23.7973L487.261 20.9133L489.557 20.5493L494.261 7.41727H497.285ZM492.861 19.9893L498.209 19.1213L495.717 11.9253L492.861 19.9893ZM515.43 7.30527L518.538 10.4693L516.466 12.4853L514.226 10.1613H508.682L505.826 17.3293L508.766 24.0493H513.806L517.978 20.5493L519.826 22.7613L514.842 26.9053H506.89L502.718 17.3853L506.722 7.30527H515.43ZM522.426 23.8253H525.422V26.7373H522.426V23.8253ZM526.654 7.36127L525.282 22.0053L522.398 21.9773L521.222 7.36127H526.654Z" fill="black"/>
</svg>
