<svg width="603" height="360" viewBox="0 0 603 360" fill="none" xmlns="http://www.w3.org/2000/svg">
<path d="M14.1697 152.375C15.8374 106.158 36.9833 62.1901 70.8123 33.1675C84.8368 21.153 104.712 9.75688 123.397 10.0584C123.975 10.0668 124.542 10.2518 125.03 10.5912C126.781 11.7973 127.553 12.967 127.346 14.1005C126.978 16.0871 125.822 17.0752 123.878 17.0647C120.367 17.0407 116.911 17.4838 113.511 18.3938C91.1154 24.4375 69.9795 41.219 55.0719 60.7007C34.6567 87.3949 23.5669 117.319 21.8023 150.472C21.3285 159.387 21.2209 169.482 21.4794 180.759C21.5702 185.005 22.0446 188.686 22.9025 191.8C23.6357 194.469 22.3611 197.564 19.3652 196.967C14.9565 196.087 14.2924 189.257 14.1704 185.003C13.7984 173.588 13.7981 162.712 14.1697 152.375Z" fill="#688088"/>
<path d="M243.166 88.1311C234.135 63.1343 219.333 43.6151 198.76 29.5735C198.139 29.1572 197.671 28.5408 197.431 27.8222C196.798 25.9318 196.958 24.5293 197.911 23.6146C199.098 22.4662 200.397 22.3138 201.806 23.1574C205.15 25.1825 208.411 28.0255 211.704 30.3414C220.474 36.5285 228.492 45.2431 235.757 56.4849C253.808 84.3937 259.978 114.455 259.259 147.38C258.705 172.494 255.885 197.728 250.799 223.083C250.223 225.997 248.683 227.734 246.179 228.295C245.919 228.361 245.658 228.349 245.395 228.257C243.134 227.492 242.279 225.914 242.828 223.522C247.235 204.384 250.087 182.373 251.385 157.486C252.412 137.858 251.206 119.761 247.77 103.195C247.665 102.686 247.42 102.269 247.034 101.945C235.139 91.6414 220.819 84.1373 207.248 75.8962C186.922 63.5319 161.367 36.6698 159.216 11.6696C159.182 11.2758 159.226 10.8797 159.343 10.5054C159.461 10.1311 159.651 9.78649 159.901 9.49263C160.827 8.38972 161.818 7.92693 162.875 8.10421C164.511 8.37592 165.489 9.36024 165.809 11.0572C169.462 30.7381 185.261 49.386 200.149 61.3658C212.85 71.5943 228.806 79.2642 242.494 88.686C243.265 89.2182 243.489 89.0332 243.166 88.1311Z" fill="#688088"/>
<path d="M228.391 134.741C231.126 134.264 232.649 135.536 232.96 138.556C234.113 149.818 234.205 159.781 233.236 168.446C232.748 172.741 231.573 181.68 229.71 195.262C228.353 205.11 227.242 217.469 226.378 232.34C226.31 233.674 225.301 234.527 223.353 234.9C223.031 234.961 222.719 234.948 222.415 234.859C220.08 234.173 218.967 232.571 219.077 230.053C219.817 213.739 221.411 197.865 223.86 182.433C226.128 168.229 227.399 153.991 226.229 140.042C226.145 138.945 225.896 138.904 225.483 139.92C218.346 157.679 205.877 170.483 188.076 178.33C187.221 178.707 187.014 179.327 187.456 180.189C199.457 203.884 206.758 230.422 209.358 259.803C210.231 269.588 209.213 282.321 198.396 285.43C192.18 287.218 184.686 287.734 175.914 286.976C175.286 286.917 174.97 287.218 174.966 287.877C175.072 306.663 175.74 325.641 176.972 344.811C177.13 347.241 176.057 348.652 173.753 349.047C172.898 349.19 172.039 348.994 171.176 348.458C170.79 348.221 170.463 347.894 170.219 347.501C169.975 347.109 169.822 346.663 169.772 346.197C167.727 326.529 167.782 306.697 167.935 287.303C167.933 286.687 167.638 286.353 167.052 286.301L130.71 282.999C130.042 282.944 129.707 283.262 129.705 283.953C129.668 288.865 129.313 293.749 128.639 298.603C127.053 309.833 124.43 324.133 120.771 341.505C120.334 343.554 119.108 344.603 117.091 344.652C115.951 344.684 114.931 344.104 114.032 342.912C113.751 342.544 113.551 342.116 113.445 341.658C113.339 341.2 113.331 340.722 113.421 340.26C117.103 321.127 121.357 301.878 123.023 282.454C123.031 282.323 122.993 282.193 122.916 282.091C122.84 281.989 122.729 281.922 122.608 281.903C113.05 280.257 102.673 278.352 94.5255 273.164C85.5345 267.433 85.138 257.844 87.7087 248.217C89.9866 239.697 92.8207 231.412 96.211 223.362C102.068 209.462 108.123 195.432 114.377 181.272C114.77 180.386 114.516 179.814 113.617 179.558C100.257 175.784 88.4175 169.69 78.0985 161.277C68.449 153.408 62.504 143.277 60.2636 130.883C60.2014 130.517 60.0979 130.5 59.953 130.833C50.7434 152.035 47.8835 174.136 51.3734 197.134C52.4606 204.311 54.3758 212.569 57.1189 221.909C57.6569 223.771 57.1391 225.227 55.5656 226.277C54.59 226.92 53.3906 226.978 51.9672 226.452C51.5156 226.286 51.1068 226.013 50.7731 225.654C50.4393 225.295 50.1897 224.86 50.0437 224.383C45.5248 209.354 43.0465 196.51 42.609 185.851C41.3283 154.838 49.2287 128.089 66.31 105.602C77.1212 91.3857 91.8559 78.6374 105.091 66.2516C118.013 54.1498 130.837 41.4356 140.011 26.7016C140.899 25.2803 142.125 24.8159 143.688 25.3082C144.516 25.5606 145.203 26.2511 145.75 27.3798C145.96 27.8016 146.067 28.2717 146.06 28.7479C146.052 29.2242 145.932 29.6918 145.709 30.1089C141.593 37.9076 136.163 45.3874 129.42 52.5483C118.169 64.5054 106.503 75.9008 94.4207 86.7346C85.9878 94.3074 77.9607 102.979 70.3396 112.751C68.9336 114.56 68.0606 116.633 67.7208 118.971C65.9183 131.474 69.7704 142.432 79.2772 151.844C83.8307 156.362 88.7105 160.047 93.9168 162.9C133.127 184.407 197.931 188.046 218.988 136.141C222.745 126.898 224.962 116.19 225.639 104.014C225.777 101.579 227.021 100.374 229.371 100.4C229.728 100.399 230.063 100.501 230.377 100.705C232.439 102.012 233.348 104.042 233.106 106.795C232.216 116.504 230.456 125.587 227.826 134.045C227.65 134.614 227.838 134.846 228.391 134.741ZM170.933 231.227C168.523 232.407 166.527 234.117 164.943 236.357C164.561 236.903 164.039 237.322 163.44 237.565C160.452 238.788 158.677 237.848 158.114 234.744C158.039 234.322 158.045 233.888 158.132 233.467C158.219 233.046 158.386 232.646 158.622 232.29C160.482 229.472 162.675 227.191 165.199 225.448C165.642 225.141 165.938 224.726 166.087 224.202C169.984 210.42 173.81 197.235 174.838 183.911C174.889 183.322 174.634 183.08 174.071 183.186C157.789 186.494 141.304 186.32 124.617 182.664C124.045 182.536 123.754 182.776 123.745 183.382C123.454 198.152 128.362 209.633 133.233 222.823C133.472 223.47 133.879 223.98 134.452 224.352C137.913 226.622 140.582 229.817 142.457 233.935C143.504 236.25 142.97 238.058 140.857 239.36C140.644 239.496 140.416 239.576 140.173 239.598C138.255 239.84 136.905 239.041 136.124 237.201C134.502 233.421 131.946 230.699 128.455 229.036C127.919 228.778 127.493 228.324 127.258 227.761C124.143 220.273 121.447 212.841 119.169 205.467C118.079 201.934 117.435 198.307 117.237 194.585C117.197 193.643 116.994 193.604 116.63 194.466C108.855 213.007 99.9866 231.474 94.7715 251.115C93.14 257.244 93.0591 263.419 98.7821 266.76C108.099 272.19 120.778 273.977 131.27 275.09C147.608 276.824 163.674 278.248 179.469 279.362C184.553 279.719 189.789 279.365 195.179 278.301C202.647 276.827 202.31 267.216 201.866 261.344C199.883 234.87 193.31 209.842 182.144 186.261C181.946 185.854 181.821 185.876 181.767 186.328C180.24 200.367 177.013 214.883 172.087 229.876C171.886 230.5 171.501 230.951 170.933 231.227Z" fill="#688088"/>
<path d="M139.335 82.3995L138.969 82.4035C137.199 82.4231 135.779 83.9296 135.798 85.7684L135.873 93.0298C135.891 94.8685 137.341 96.3433 139.111 96.3238L139.478 96.3197C141.248 96.3002 142.667 94.7937 142.648 92.9549L142.574 85.6935C142.555 83.8547 141.105 82.3799 139.335 82.3995Z" fill="#688088"/>
<path d="M162.464 81.801L162.159 81.7894C160.348 81.7207 158.827 83.1902 158.761 85.0717L158.375 96.0363C158.309 97.9177 159.724 99.4986 161.535 99.5673L161.84 99.5788C163.651 99.6475 165.172 98.178 165.238 96.2966L165.624 85.3319C165.69 83.4505 164.275 81.8696 162.464 81.801Z" fill="#688088"/>
<path d="M200.157 127.73C194.1 138.688 184.906 145.497 172.574 148.155C152.292 152.545 134.025 147.87 117.773 134.13C111.121 128.497 106.467 120.813 103.81 111.076C103.609 110.359 103.669 109.592 103.979 108.919C104.74 107.251 105.668 106.393 106.764 106.344C108.577 106.271 109.74 107.13 110.254 108.923C115.65 128.092 134.775 139.451 153.363 141.706C166.998 143.374 182.936 139.387 191.502 127.487C193.347 124.92 192.884 121.505 194.395 119.54C199.164 113.323 206.402 121.47 209.4 125.84C210.94 128.098 210.74 130.004 208.797 131.559C208.076 132.135 207.169 132.406 206.264 132.316C205.358 132.226 204.523 131.782 203.93 131.076L201.029 127.649C200.697 127.257 200.407 127.284 200.157 127.73Z" fill="#688088"/>
<path d="M70.5319 163.561C71.0277 161.609 72.2428 160.66 74.1774 160.715C74.4748 160.73 74.7615 160.799 75.0377 160.922C76.5369 161.613 77.1806 162.805 76.9687 164.496C75.2125 178.734 76.2308 192.822 80.0237 206.758C82.1027 214.422 85.5259 223.351 90.2935 233.545C90.585 234.152 90.6921 234.839 90.6007 235.513C90.1272 239.028 88.3005 240.049 85.1207 238.577C84.3892 238.233 83.8 237.631 83.4583 236.879C80.1947 229.687 77.3191 222.612 74.8314 215.657C70.7145 204.125 68.7446 191.202 68.9217 176.886C68.9806 171.994 69.5173 167.552 70.5319 163.561Z" fill="#688088"/>
<path d="M339.019 351.864L267 351.852L272.052 327.298L328.934 327.308L339.019 351.864Z" stroke="#413E3D"/>
<path d="M466.179 327.332L401.814 327.321L395.141 302.765L471.347 302.778L466.179 327.332Z" stroke="#413E3D"/>
<path d="M585.885 327.353L466.316 327.332L471.381 302.778L601.987 302.801L585.885 327.353Z" stroke="#413E3D"/>
<path d="M400.996 327.32L301.341 327.303L310.49 302.75L394.603 302.764L400.996 327.32Z" fill="#CAD9D6" stroke="#413E3D"/>
<path d="M529.117 351.898L436.999 351.881L444.836 327.328L524.057 327.342L529.117 351.898Z" fill="#FFE7B9" stroke="#413E3D"/>
<path d="M339.033 302.755L267.013 302.742L272.065 278.188L328.947 278.198L339.033 302.755Z" stroke="#413E3D"/>
<path d="M466.192 278.222L401.826 278.211L395.153 253.655L471.36 253.669L466.192 278.222Z" stroke="#413E3D"/>
<path d="M585.898 278.243L466.329 278.222L471.394 253.668L602 253.691L585.898 278.243Z" stroke="#413E3D"/>
<path d="M401.009 278.211L301.354 278.193L310.503 253.64L394.616 253.655L401.009 278.211Z" fill="#CAD9D6" stroke="#413E3D"/>
<path d="M529.13 302.788L437.012 302.772L444.849 278.219L524.07 278.233L529.13 302.788Z" fill="#FFE7B9" stroke="#413E3D"/>
<path d="M425 218.905C434.019 224.709 442.981 230.543 451.61 236.922C452.074 237.266 459.894 243.505 461.864 244.398C464.566 245.622 466.083 244.398 468.681 243.338C475.66 240.492 482.597 237.458 489.448 234.315C492.006 233.141 494.534 232.075 496.666 230.248" stroke="#FED78A" stroke-width="6" stroke-linecap="round"/>
</svg>
