<svg width="192" height="173" viewBox="0 0 192 173" fill="none" xmlns="http://www.w3.org/2000/svg">
<path d="M54.455 51.3817C61.8526 46.4218 68.6971 42.4948 74.9886 39.6007C75.2464 39.4834 75.5311 39.421 75.8203 39.4185C76.1095 39.4161 76.3955 39.4735 76.6558 39.5864C77.2408 39.8435 77.536 40.1909 77.5413 40.6289C77.5519 41.7379 77.0254 42.5519 75.9618 43.0707C66.8836 47.4928 58.9808 52.367 52.2532 57.6934C51.3332 58.4217 50.2908 58.7239 49.1261 58.6002C48.8336 58.5716 48.6581 58.6858 48.5996 58.9429C45.6719 71.752 45.7437 84.4611 52.6042 95.4495C56.9359 102.382 64.275 106.738 72.4757 109.53C87.2816 114.57 102.877 115.62 119.263 112.678C127.958 111.115 135.058 108.266 139.685 101.226C143.093 96.0469 145.285 89.9756 146.258 83.0117C147.032 77.4568 145.883 70.9595 144.615 65.4974C144.551 65.2356 144.37 65.1213 144.072 65.1547C141.264 65.4974 139.022 64.3764 136.406 63.4625C127.511 60.3423 119.295 54.5804 112.554 48.2329C106.834 42.8494 102.566 36.5877 101.92 29.0193C101.819 27.8245 102.04 26.7512 102.582 25.7992C102.735 25.5273 102.981 25.3061 103.282 25.1674C103.583 25.0288 103.925 24.98 104.257 25.028C105.246 25.1613 105.728 25.6492 105.701 26.4917C105.661 27.6984 105.382 28.7408 105.645 29.9832C107.68 39.565 115.609 46.9763 124.536 53.2024C130.077 57.0627 136.05 59.8996 142.453 61.7132C142.546 61.7407 142.647 61.7418 142.741 61.7163C142.835 61.6907 142.918 61.6398 142.979 61.5704C143.277 61.242 143.381 60.8635 143.29 60.4351C142.977 58.8977 142.479 57.5649 141.799 56.4368C141.66 56.2083 141.623 55.9679 141.687 55.7156L141.862 54.9873C141.931 54.697 141.894 54.4161 141.751 54.1448C136.669 44.8057 127.16 40.2076 117.125 35.5738C116.738 35.3988 116.433 35.1054 116.263 34.7455C115.731 33.6555 115.737 32.9296 116.279 32.5679C117.077 32.03 117.917 31.9705 118.8 32.3894L125.852 35.738C126.171 35.8903 126.386 35.8118 126.498 35.5024C128.854 28.8479 132.625 23.1717 137.81 18.4736C138.727 17.6382 139.206 16.2959 140.426 15.9103C142.86 15.1321 145.261 14.5466 146.784 17.067C146.933 17.3145 147.167 17.4311 147.486 17.4169C153.533 17.0813 159.508 17.6168 165.371 17.8738C165.691 17.8881 165.831 17.7524 165.794 17.4668C165.082 12.2594 165.015 7.52085 165.595 3.25115C165.712 2.39435 166.063 1.58041 166.648 0.80929C167.757 -0.647262 170.341 -0.0403716 169.927 1.85172C169.033 5.87866 168.85 9.83897 169.376 13.7326C169.429 14.1039 169.554 14.1253 169.751 13.7969C171.9 10.165 174.136 7.00202 176.46 4.30787C176.713 4.01699 177.074 3.81268 177.481 3.72953C179.449 3.34398 180.193 4.10319 179.715 6.00718C179.657 6.22421 179.554 6.42782 179.412 6.60694C176.338 10.3673 173.572 14.3014 171.115 18.4093C171.09 18.4525 171.078 18.5009 171.08 18.5495C171.082 18.5982 171.099 18.6455 171.128 18.6867C171.157 18.7279 171.198 18.7615 171.246 18.7843C171.294 18.807 171.348 18.8181 171.402 18.8163C177.359 18.6021 183.227 18.6449 189.008 18.9448C190.492 19.021 191.468 19.6112 191.936 20.7155C192.016 20.9107 192.021 21.1106 191.952 21.3153C191.654 22.2244 190.979 22.6433 189.926 22.5719C184.661 22.2149 179.358 22.0531 174.019 22.0864C173.588 22.0864 173.551 22.1959 173.907 22.4148C177.114 24.3855 180.571 26.0895 184.278 27.527C185.086 27.8364 185.49 28.3814 185.49 29.1621C185.496 29.362 185.434 29.5453 185.307 29.7119C184.701 30.502 183.879 30.7733 182.842 30.5258C180.842 30.0451 179.177 29.4334 177.848 28.6908C174.604 26.8773 171.11 24.7782 167.366 22.3934C167.089 22.2173 166.847 22.0126 166.64 21.7794C166.475 21.589 166.26 21.4842 165.994 21.4652C159.777 21.0225 153.608 20.8179 147.486 20.8512C147.338 20.8534 147.194 20.891 147.068 20.96C146.941 21.0291 146.838 21.1271 146.768 21.2439C145.277 23.7571 141.447 26.149 138.951 22.936C138.926 22.9039 138.893 22.8776 138.854 22.8592C138.816 22.8408 138.773 22.8309 138.728 22.8302C138.684 22.8295 138.64 22.8381 138.6 22.8552C138.559 22.8723 138.524 22.8976 138.496 22.9289C134.63 27.2319 131.705 31.8467 129.721 36.7733C129.63 36.995 129.626 37.2374 129.709 37.4615C129.791 37.6856 129.956 37.8783 130.176 38.0085C137.698 42.4567 143.737 48.1258 146.728 55.8727C147.55 58.0004 147.231 60.1495 147.821 62.3201C149.776 69.4957 151.252 77.9352 149.88 85.3251C147.446 98.3983 141.416 110.415 126.57 114.599C125.799 114.818 125.817 114.949 126.626 114.992L150.31 116.163C150.999 116.195 151.674 116.002 152.209 115.62C155.464 113.297 159.569 112.117 164.526 112.078C165.717 112.069 166.369 112.593 166.48 113.649C166.496 113.783 166.488 113.913 166.456 114.042C166.233 114.885 165.64 115.353 164.677 115.449C162.704 115.644 160.755 115.948 158.83 116.362C155.855 116.998 153.948 119.704 150.781 119.625C142.591 119.421 133.366 118.904 123.108 118.076C122.773 118.048 122.669 118.174 122.797 118.454C126.346 125.994 129.25 134.012 129.418 142.088C129.545 148.028 126.243 153.519 118.888 153.797C115.521 153.926 111.809 153.781 107.751 153.362C107.432 153.328 107.273 153.457 107.273 153.747C107.23 159.902 107.727 165.695 108.764 171.126C108.809 171.362 108.793 171.603 108.719 171.832C108.644 172.061 108.512 172.271 108.334 172.447C107.477 173.294 106.464 173.168 105.294 172.068C105.029 171.822 104.854 171.508 104.792 171.169C103.702 165.6 103.348 159.719 103.731 153.526C103.747 153.25 103.603 153.095 103.3 153.062L80.7004 150.449C80.344 150.411 80.1366 150.549 80.0781 150.863L76.7675 168.891C76.5973 169.81 75.9937 170.295 74.9566 170.348C74.2706 170.386 73.6696 169.731 73.1538 168.384C73.0542 168.122 73.0268 167.84 73.074 167.563C73.8983 162.308 75.0816 156.606 76.6239 150.456C76.6401 150.387 76.6407 150.317 76.6254 150.249C76.6102 150.18 76.5794 150.115 76.5353 150.058C76.4911 150.001 76.4343 149.953 76.3685 149.917C76.3028 149.881 76.2295 149.858 76.1532 149.849C68.6625 148.964 48.7831 146.357 54.439 135.348C55.8164 132.668 58.0421 129.545 61.116 125.98C64.7909 121.725 68.4312 117.724 72.0369 113.978C72.5528 113.44 72.4173 113.204 71.6302 113.271C64.0996 113.894 57.1168 114.516 50.6817 115.134C48.4002 115.353 46.5149 115.153 45.0258 114.535C41.8029 113.207 39.3061 112.421 35.5009 112.792C34.4692 112.897 33.7645 112.516 33.3869 111.65C33.3124 111.483 33.2885 111.315 33.3151 111.143C33.4959 109.986 34.2352 109.353 35.5328 109.244C39.2769 108.93 42.84 109.577 46.2224 111.186C47.1637 111.629 48.4241 111.743 49.4612 111.65C54.2954 111.241 59.3158 110.836 64.5224 110.436C64.9638 110.403 64.9877 110.298 64.5941 110.122C59.494 107.79 55.4335 104.898 52.4128 101.447C40.391 87.7026 41.4201 68.996 46.1905 52.9025C46.7011 51.1817 47.9774 47.3976 50.7695 48.7399C51.0301 48.8636 51.2374 48.8136 51.3916 48.5899C52.9126 46.3289 54.697 44.2941 56.7445 42.4853C56.7643 42.4674 56.7789 42.4451 56.7866 42.4209C56.7944 42.3966 56.795 42.3712 56.7885 42.3472C56.782 42.3232 56.7686 42.3016 56.7496 42.2844C56.7307 42.2673 56.7068 42.2553 56.6806 42.2497C52.9525 41.2881 51.8837 39.2532 53.4738 36.145C53.6014 35.8879 53.5136 35.7166 53.2105 35.6309L36.9527 31.1541C36.6336 31.0685 36.3492 31.128 36.0992 31.3326C33.1396 33.7888 29.0153 31.8824 30.7703 28.0982C30.9086 27.8031 30.9086 27.508 30.7703 27.2129L25.9441 16.7814C25.9233 16.7369 25.8905 16.6977 25.8488 16.6673C25.807 16.6368 25.7574 16.6161 25.7045 16.6069C25.6517 16.5977 25.5971 16.6004 25.5456 16.6146C25.4942 16.6289 25.4474 16.6543 25.4096 16.6886C21.3784 20.3918 17.2488 24.5592 13.0208 29.1906C12.7179 29.5216 12.3058 29.756 11.8476 29.8579C11.3894 29.9597 10.9104 29.9235 10.4841 29.7547C9.98948 29.5596 9.7289 28.9764 9.70231 28.0054C9.68693 27.6503 9.81415 27.301 10.0613 27.0201C13.8691 22.6504 17.5972 18.9043 21.2455 15.7818C22.3995 14.7965 22.216 14.5228 20.695 14.9607L2.60249 20.2014C1.45376 20.5346 0.626788 20.2086 0.121559 19.2233C-0.0911692 18.8139 -0.0246917 18.3141 0.320992 17.7239C0.505857 17.4068 0.815722 17.1625 1.19049 17.0384C7.99248 14.787 14.4807 12.9948 20.6551 11.662C21.0061 11.5859 21.0327 11.4574 20.7349 11.2765C17.8897 9.57241 14.6084 7.83978 10.8909 6.07859C10.0028 5.65971 9.54268 4.96236 9.51077 3.98656C9.50545 3.76284 9.58526 3.56531 9.75013 3.39395C10.5 2.61808 11.3881 2.45386 12.4145 2.90129C18.3603 5.51452 23.6599 8.7537 28.3133 12.6188C28.659 12.9092 28.7707 13.3185 28.6484 13.8469C28.5899 14.0849 28.6192 14.3133 28.7362 14.5323L33.8017 24.3569C33.9613 24.6663 34.166 24.6925 34.416 24.4354L34.7271 24.1213C34.9133 23.9309 35.1366 23.7905 35.3972 23.7C38.0297 22.779 38.1413 26.4061 38.5402 27.6413C38.6147 27.8793 38.7849 28.034 39.0508 28.1054C44.8636 29.5953 50.5806 31.1803 56.202 32.8606C57.1593 33.1462 57.7576 32.4965 58.6511 32.4251C61.8473 32.1871 63.6289 33.5127 63.9958 36.402C64.0384 36.7352 64.2192 36.8137 64.5383 36.6376C71.1489 33.0391 78.6262 30.4187 86.9705 28.7765C90.4008 28.1054 97.9074 27.4057 99.7262 30.7971C99.8232 30.979 99.8776 31.1768 99.8861 31.3782C99.8946 31.5796 99.8569 31.7804 99.7755 31.9684C99.694 32.1563 99.5706 32.3273 99.4126 32.4709C99.2545 32.6145 99.0653 32.7277 98.8566 32.8035C97.9951 33.1176 97.2559 32.9249 96.639 32.2251C96.4582 32.0157 96.2242 31.8848 95.937 31.8324C94.0331 31.4754 92.1211 31.4564 90.2013 31.7753C75.9219 34.1386 61.7462 39.7007 54.2156 51.1889C53.9391 51.6078 54.0189 51.672 54.455 51.3817ZM63.0226 143.594C66.5486 144.675 70.2421 145.482 74.1031 146.015C86.1435 147.666 98.1334 149.004 110.073 150.027C112.62 150.242 115.255 150.342 117.978 150.327C133.359 150.22 120.994 123.06 117.779 117.255C117.667 117.055 117.488 116.893 117.267 116.79C117.046 116.687 116.795 116.65 116.55 116.684C106.611 118.064 97.7611 118.224 90.0018 117.162C86.2631 116.648 81.8305 115.784 76.7037 114.57C76.5749 114.54 76.4394 114.544 76.3135 114.581C76.1876 114.618 76.0766 114.686 75.9937 114.777C70.7553 120.618 66.0327 126.032 61.826 131.021C60.1348 133.025 58.7839 135.155 57.7735 137.411C56.2498 140.795 60.1667 142.723 63.0226 143.594Z" fill="#413E3D"/>
<path d="M96.95 37.1806C95.4502 40.6363 93.8441 43.3971 92.1316 45.4629C85.2871 53.7262 77.0147 60.0951 67.3143 64.5695C62.2513 66.9114 57.5048 68.8392 53.0748 70.3528C52.817 70.4422 52.5422 70.4812 52.2691 70.4671C50.5353 70.3862 49.6392 70.0006 49.5807 69.3104C49.5009 68.3632 49.9556 67.7134 50.9448 67.3612C56.7576 65.2668 61.9774 63.1272 66.6043 60.9424C75.3474 56.8059 83.1545 50.5466 90.0256 42.1642C91.661 40.1793 92.6342 37.8089 93.9823 35.6883C94.1422 35.4346 94.3965 35.2398 94.7003 35.1385C95.2747 34.9481 95.7614 34.9576 96.1602 35.1671C97.0643 35.6383 97.3276 36.3095 96.95 37.1806Z" fill="#413E3D"/>
<path d="M89.4524 66.3817L89.261 66.3844C88.3227 66.3976 87.574 67.0891 87.5887 67.9289L87.6599 71.9839C87.6746 72.8237 88.4472 73.4938 89.3855 73.4806L89.577 73.4779C90.5153 73.4647 91.264 72.7732 91.2492 71.9334L91.178 67.8784C91.1633 67.0386 90.3907 66.3685 89.4524 66.3817Z" fill="#413E3D"/>
<path d="M112.404 66.9397L112.229 66.9402C111.273 66.9432 110.5 67.6393 110.504 68.495L110.52 72.6219C110.523 73.4776 111.301 74.1688 112.257 74.1658L112.432 74.1653C113.388 74.1623 114.161 73.4662 114.157 72.6105L114.141 68.4836C114.138 67.628 113.36 66.9367 112.404 66.9397Z" fill="#413E3D"/>
<path d="M64.7457 81.221C64.2724 81.4923 63.7725 81.5185 63.246 81.2996C62.9076 81.1595 62.6329 80.9196 62.4675 80.6197C62.3021 80.3197 62.2559 79.9776 62.3366 79.6502C63.0226 76.9584 68.9099 75.202 71.3908 74.4809C71.6145 74.4169 71.8524 74.4023 72.0843 74.4383C72.3163 74.4744 72.5354 74.56 72.7231 74.6879C73.441 75.1735 73.7095 75.8089 73.5287 76.5943C73.4726 76.8428 73.3465 77.0743 73.1621 77.2667C72.9778 77.4592 72.7415 77.6062 72.4757 77.6939L68.9976 78.8577C68.7317 78.9481 68.6121 79.1195 68.6387 79.3718C69.1732 84.9266 73.6404 89.6961 78.7459 93.1448C88.3904 99.6635 101.489 101.449 112.761 97.3859C121.073 94.3871 125.581 89.2606 128.971 82.1349C128.991 82.0926 129 82.0467 128.996 82.0008C128.992 81.9548 128.975 81.9103 128.948 81.8707C128.921 81.831 128.884 81.7975 128.839 81.7727C128.795 81.7479 128.744 81.7325 128.692 81.7279C127.501 81.6423 126.756 81.1805 126.458 80.3428C126.376 80.1077 126.361 79.8578 126.414 79.6161C126.467 79.3745 126.587 79.1487 126.762 78.9597C126.938 78.7706 127.163 78.6243 127.418 78.5341C127.673 78.4439 127.949 78.4128 128.221 78.4436C131.098 78.7672 133.888 79.7287 136.589 81.3281C136.792 81.4471 136.964 81.6036 137.094 81.7871C137.224 81.9706 137.308 82.1768 137.342 82.3919C137.375 82.607 137.356 82.826 137.287 83.0342C137.218 83.2423 137.1 83.4348 136.94 83.5986C136.105 84.4554 134.93 84.4102 133.414 83.463C133 83.2012 132.694 83.2773 132.497 83.6914C129.561 89.7318 125.637 94.9083 119.566 98.2355C105.909 105.711 88.8452 104.262 76.1932 95.8294C70.8324 92.2522 66.4368 87.29 65.3519 81.4638C65.2881 81.1068 65.0861 81.0258 64.7457 81.221Z" fill="#413E3D"/>
</svg>
