<svg width="442" height="158" viewBox="0 0 442 158" fill="none" xmlns="http://www.w3.org/2000/svg">
<path d="M194.945 44.225L193.58 92.13L186.82 91.935L187.925 51.765L172.585 53.39V81.34L169.465 88.1L163.55 92.195L159.715 86.67L164.135 83.55L165.89 79.91V47.345L194.945 44.225ZM234.515 49.815L241.275 78.025L225.87 93.365H213.26L198.18 77.375L205.915 50.985L219.825 43.835L234.515 49.815ZM216.185 86.67H223.075L233.865 75.88L228.795 54.755L220.15 51.245L211.57 55.6L205.72 75.555L216.185 86.67ZM274.204 49.555L256.199 72.565H253.079L251.259 92.195L244.564 91.87V46.565H251.324V65.805H252.884L268.939 45.395L274.204 49.555ZM255.679 66.13L268.809 70.875L276.349 90.7L270.109 93.105L263.609 76.14L253.404 72.37L255.679 66.13ZM302.936 46.76L311.841 72.825L318.146 91.22L311.711 93.365L307.291 80.43L290.066 83.225L286.361 93.43L279.991 91.155L282.331 84.525L280.771 84.785L279.666 78.09L284.996 77.245L295.916 46.76H302.936ZM292.666 75.945L305.081 73.93L299.296 57.225L292.666 75.945ZM330.454 85.175H338.709L348.459 71.655V46.5H355.219V85.175H362.044L360.419 101.49L353.724 100.775L354.569 91.935H348.459V83.225L342.219 91.935H324.019L322.134 46.63L328.829 46.305L330.454 85.175ZM400.25 91.675L393.49 92.325L390.825 64.635L370.74 92.65L364.695 47.8L371.39 46.89L375.16 74.905L395.83 46.11L400.25 91.675ZM439.351 91.675L432.591 92.325L429.926 64.635L409.841 92.65L403.796 47.8L410.491 46.89L414.261 74.905L434.931 46.11L439.351 91.675Z" fill="black"/>
<path d="M118.781 72.0622C118.563 71.9404 118.534 71.7971 118.506 71.6538L115.362 10.538C115.305 10.2513 115.628 9.92181 116.117 9.93982C116.497 9.89691 116.934 10.1406 116.911 10.5096L120.026 71.4821C120.083 71.7687 119.76 72.0983 119.271 72.0803C119.081 72.1017 118.891 72.1232 118.781 72.0622Z" fill="#413E3D" stroke="#413E3D"/>
<path d="M115.734 37.241C126.761 31.16 137.385 25.4909 149.183 20.3487C144.371 20.0862 139.421 19.6194 134.604 18.8446C138.114 16.47 141.376 13.8303 144.12 11.0293C134.345 11.6936 123.947 12.648 114.314 14.029C114.417 21.857 115.55 29.4953 115.734 37.241Z" fill="white"/>
<g clip-path="url(#clip0_721_30)">
<path d="M109.661 110.345L115.042 128.742C115.783 131.244 113.236 133.632 109.814 133.661L69.4132 133.988C66.1431 134.016 63.8237 131.884 63.9757 129.438C64.5271 121.448 63.4624 108.226 68.7858 106.961C74.6224 105.582 79.6226 106.99 104.813 107.189C107.19 107.203 109.148 108.61 109.661 110.345Z" fill="#FFE7B9"/>
<path d="M13.8796 111.852L30.6101 123.083L33.652 120.809L37.0741 123.652L36.1235 125.216L38.0247 127.491L40.8765 125.642C40.8765 125.642 44.4888 127.491 44.4888 127.633C44.4888 127.775 42.3975 129.765 42.3975 129.765L45.6295 131.898L48.1011 130.05L52.2837 132.609L45.6295 141.708L22.6251 143.84L0.000839233 131.613L13.8796 111.852Z" fill="#FFE7B9"/>
<path d="M103.901 139.689C89.718 139.689 70.3639 141.11 62.9302 141.708C60.0974 141.935 57.6259 143.357 56.7894 145.404C55.5536 148.375 58.4054 150.835 64.147 152.427C67.8543 153.465 78.4059 153.82 89.4139 153.82C101.677 153.82 114.51 153.365 119.053 152.882C127.666 151.958 125.67 145.518 119.814 141.381C118.046 140.129 111.772 139.689 103.901 139.689ZM103.901 137.983C116.696 137.983 119.966 139.148 121.392 140.158C123.464 141.622 125.08 143.328 126.088 145.077C127.21 147.039 127.457 148.93 126.772 150.522C126.221 151.802 124.529 154.048 119.377 154.588C114.453 155.114 101.011 155.541 89.4139 155.541C79.9839 155.541 67.8163 155.285 63.3485 154.034C60.0594 153.11 57.6069 151.93 56.0669 150.508C54.2798 148.844 53.7665 146.911 54.603 144.906C55.7057 142.248 58.8807 140.328 62.6831 140.03C70.3259 139.404 89.661 137.983 103.901 137.983Z" fill="#413E3D"/>
<path d="M102.855 113.913L104.186 129.41C104.186 129.41 70.9151 126.566 71.2954 125.713C71.6756 124.86 73.3867 111.781 73.3867 111.781L102.855 113.913Z" fill="#C2D7EA" stroke="#413E3D" stroke-width="3" stroke-miterlimit="10" stroke-linecap="round"/>
<path d="M113.021 136.814L116.323 137.585L115.316 139.997L112.013 139.225L113.021 136.814Z" fill="#413E3D"/>
<path d="M106.411 136.846L108.919 136.605L109.35 139.11L106.842 139.351L106.411 136.846Z" fill="#413E3D"/>
<path d="M101.589 136.649L104.552 136.756L104.389 139.279L101.427 139.172L101.589 136.649Z" fill="#413E3D"/>
<path d="M97.7032 136.973H99.8325V139.215H97.7032V136.973Z" fill="#413E3D"/>
<path d="M93.2187 136.974L95.8115 136.592L96.4234 138.917L93.8306 139.299L93.2187 136.974Z" fill="#413E3D"/>
<path d="M77.7109 139.976L75.2031 139.734L75.6341 137.23L78.1419 137.471L77.7109 139.976Z" fill="#413E3D"/>
<path d="M83.1474 139.805L80.1851 139.912L80.0223 137.389L82.9846 137.282L83.1474 139.805Z" fill="#413E3D"/>
<path d="M87.1645 139.485L85.0352 139.485L85.0352 137.243L87.1645 137.243L87.1645 139.485Z" fill="#413E3D"/>
<path d="M91.0323 139.565L88.4395 139.184L89.0514 136.859L91.6442 137.24L91.0323 139.565Z" fill="#413E3D"/>
<path d="M70.3832 138.154L72.9761 137.773L73.588 140.098L70.9951 140.479L70.3832 138.154Z" fill="#413E3D"/>
<path d="M68.2101 140.757L65.6172 140.375L66.2291 138.05L68.822 138.432L68.2101 140.757Z" fill="#413E3D"/>
<path d="M108.814 154.307L112.209 153.808L112.862 156.286L109.467 156.786L108.814 154.307Z" fill="#413E3D"/>
<path d="M103.825 154.447L106.333 154.206L106.763 156.71L104.256 156.952L103.825 154.447Z" fill="#413E3D"/>
<path d="M99.004 154.249L101.966 154.356L101.804 156.879L98.8413 156.772L99.004 154.249Z" fill="#413E3D"/>
<path d="M95.1172 154.574H97.2466V156.816H95.1172V154.574Z" fill="#413E3D"/>
<path d="M90.6327 154.575L93.2256 154.193L93.8375 156.519L91.2446 156.9L90.6327 154.575Z" fill="#413E3D"/>
<path d="M75.0865 157.073L72.6489 156.57L73.5461 154.135L75.9838 154.637L75.0865 157.073Z" fill="#413E3D"/>
<path d="M80.5668 156.977L77.6045 157.084L77.4418 154.562L80.4041 154.455L80.5668 156.977Z" fill="#413E3D"/>
<path d="M84.5839 157.083L82.4546 157.083L82.4546 154.841L84.5839 154.841L84.5839 157.083Z" fill="#413E3D"/>
<path d="M88.4513 157.163L85.8584 156.782L86.4703 154.457L89.0632 154.838L88.4513 157.163Z" fill="#413E3D"/>
<path d="M68.3337 154.397L70.9731 154.492L70.8205 156.859L68.181 156.764L68.3337 154.397Z" fill="#413E3D"/>
<path d="M64.5779 153.786L67.1255 154.311L66.2837 156.596L63.7361 156.071L64.5779 153.786Z" fill="#413E3D"/>
<path d="M60.4477 151.62L63.3916 153.439L61.3707 155.268L58.4268 153.448L60.4477 151.62Z" fill="#413E3D"/>
<path d="M64.1981 140.543L61.7021 141.191L60.6622 138.952L63.1581 138.304L64.1981 140.543Z" fill="#413E3D"/>
<path d="M60.0828 141.152L57.2881 142.05L56.0974 139.976L58.8921 139.078L60.0828 141.152Z" fill="#413E3D"/>
<path d="M57.2122 142.887L55.8447 144.125L53.516 142.685L54.8835 141.448L57.2122 142.887Z" fill="#413E3D"/>
<path d="M55.865 144.361L55.7617 145.962L53.1032 145.866L53.2065 144.265L55.865 144.361Z" fill="#413E3D"/>
<path d="M55.3215 146.523L56.0273 148.497L52.997 149.103L52.2911 147.129L55.3215 146.523Z" fill="#413E3D"/>
<path d="M56.463 149.244L58.6309 151.072L56.4419 152.524L54.2741 150.696L56.463 149.244Z" fill="#413E3D"/>
<path d="M125.12 154.889L122.463 155.904L120.761 153.414L123.418 152.398L125.12 154.889Z" fill="#413E3D"/>
<path d="M118.831 137.735L121.327 138.384L120.287 140.623L117.791 139.974L118.831 137.735Z" fill="#413E3D"/>
<path d="M123.328 139.243L125.478 140.85L123.342 142.447L121.192 140.84L123.328 139.243Z" fill="#413E3D"/>
<path d="M126.694 142.043L127.488 143.533L124.68 144.369L123.886 142.879L126.694 142.043Z" fill="#413E3D"/>
<path d="M127.782 144.365L128.338 145.913L125.768 146.43L125.212 144.881L127.782 144.365Z" fill="#413E3D"/>
<path d="M129.049 147.176V149.333H125.113V147.176H129.049Z" fill="#413E3D"/>
<path d="M128.31 151.556L126.143 153.384L123.954 151.932L126.121 150.105L128.31 151.556Z" fill="#413E3D"/>
<path d="M117.361 154.147L120.114 153.882L120.545 156.387L117.792 156.652L117.361 154.147Z" fill="#413E3D"/>
<path d="M114.201 153.953L116.062 153.885L116.225 156.408L114.364 156.475L114.201 153.953Z" fill="#413E3D"/>
<path d="M70.5352 103.89L42.5876 86.9717L33.652 94.791L62.36 112.704" stroke="#413E3D" stroke-width="3" stroke-miterlimit="10"/>
<path d="M44.5459 101.588L24.5263 118.961L15.2105 112.706L34.4696 95.304" stroke="#413E3D" stroke-width="3" stroke-miterlimit="10"/>
</g>
<path d="M76.6821 98.416C74.4261 98.3573 72.4475 98.3292 71.6695 96.4108C71.2163 95.2934 71.1419 93.9396 71.4463 92.3494C72.019 89.3714 73.1341 86.2454 74.7914 82.9715C75.1499 82.264 75.5208 81.605 75.9042 80.9944C75.9831 80.8685 75.9324 80.7894 75.752 80.7571C71.4733 80.0097 67.4145 78.8157 63.8868 76.9866C62.3106 76.1702 61.1268 75.0452 60.6431 73.6625C60.3049 72.7007 59.4593 71.9277 58.5866 71.2007C58.4735 71.1054 58.4119 70.9816 58.4141 70.8537C58.4164 70.5833 58.519 70.3996 58.7219 70.3027C59.1346 70.1088 59.51 70.1428 59.8482 70.4047C60.7502 71.1003 61.4165 71.8019 61.8472 72.5094C62.297 73.2467 62.4154 74.0043 63.1088 74.6931C63.765 75.3428 64.6038 75.9015 65.6253 76.3692C68.8137 77.8251 72.4565 78.945 76.5536 79.729C76.619 79.7409 76.6675 79.7248 76.6991 79.6806L77.5413 78.5173C77.5751 78.4713 77.5582 78.4416 77.4905 78.428C75.1973 77.9807 73.2614 77.3786 71.683 76.6218C68.0098 74.8615 66.8159 71.6343 66.3762 68.471C65.9613 65.5015 66.0887 62.2667 66.7584 58.7665C66.959 57.7257 67.2916 56.7435 67.7561 55.82C67.8057 55.7213 67.7595 55.6712 67.6174 55.6695C66.5915 55.6661 65.6061 55.7043 64.6613 55.7843C64.1088 55.8319 63.5722 55.8123 63.0513 55.7256C61.3026 55.4348 62.5541 51.08 62.7909 50.2177C63.3817 48.0663 64.3671 46.2933 65.747 44.8987C68.9231 41.6894 74.7373 40.6409 80.0611 40.4036C84.0996 40.2225 88.8315 40.6766 92.7888 41.6843C96.0054 42.5032 99.1036 44.2099 100.142 46.6079C100.564 47.5807 100.912 48.602 101.187 49.6718C101.769 51.9244 104.36 52.2535 106.917 52.2943C108.628 52.3233 110.228 52.393 111.716 52.5035C113.15 52.6132 115.224 53.3735 114.104 54.7154C112.785 56.3021 108.067 56.4246 105.862 56.4629C105.683 56.4663 105.636 56.5275 105.719 56.6465C107.461 59.1594 108.158 62.0192 108.266 65.0448C108.466 70.6496 105.395 77.6524 97.3651 79.3336C97.3065 79.3455 97.2862 79.3736 97.3042 79.4178L97.9401 80.8745C97.9433 80.8823 97.9488 80.8894 97.9561 80.8955C97.9634 80.9015 97.9724 80.9063 97.9823 80.9094C97.9923 80.9126 98.0031 80.9141 98.0139 80.9138C98.0247 80.9134 98.0353 80.9114 98.045 80.9076C101.637 79.4263 103.984 78.4203 105.087 77.8897C107.256 76.8488 110.115 75.37 113.665 73.4533C114.878 72.7985 115.699 72.1182 116.127 71.4124C117.077 69.8537 118.464 68.9276 120.811 68.4888C121.24 68.4089 121.547 68.5203 121.731 68.823C121.858 69.0322 121.72 69.289 121.319 69.5935C121.223 69.6655 121.105 69.7189 120.974 69.7491C119.13 70.1649 118.254 70.869 117.534 72.0884C116.929 73.1191 115.687 73.8742 114.497 74.5273C109.193 77.4432 104.424 79.9153 98.7688 81.9026C98.6904 81.93 98.6292 81.9793 98.5982 82.0398C98.5672 82.1004 98.569 82.1674 98.6031 82.2266C100.671 85.8781 102.516 89.4488 104.14 92.9387C105.936 96.8011 103.545 98.7527 98.5658 99.2655C98.5253 99.2699 98.4884 99.2856 98.4627 99.3092C98.437 99.3329 98.4243 99.3628 98.4272 99.393C98.6369 101.832 99.0428 104.529 99.6448 107.485C99.726 107.887 99.5005 108.113 98.9683 108.164C98.9165 108.169 98.868 108.166 98.8229 108.156C98.32 108.03 98.0213 107.757 97.9266 107.337C97.3967 104.951 97.0539 102.368 96.8984 99.5869C96.8916 99.4491 96.7969 99.3837 96.6143 99.3905C92.958 99.5206 90.3265 97.9491 89.9138 95.3112C89.8755 95.0595 89.8338 94.8121 89.7887 94.5689C89.6365 93.7295 88.5812 93.2907 87.5124 93.1122C85.5337 92.7805 84.935 95.1786 84.5224 96.1429C83.8595 97.6991 80.4805 98.2323 78.6608 98.3624C78.5571 98.3692 78.5007 98.4117 78.4917 98.4899L77.6393 105.643C77.6327 105.703 77.6059 105.761 77.5615 105.812C76.964 106.482 76.4488 106.568 76.0158 106.069C75.9348 105.975 75.899 105.863 75.9143 105.75L76.8986 98.5996C76.9144 98.4806 76.8422 98.4193 76.6821 98.416ZM112.572 53.973C111.83 53.774 111.055 53.6677 110.245 53.6541C108.464 53.6252 106.78 53.5546 105.195 53.4423C102.503 53.2485 100.348 52.3556 99.6651 50.2228C99.3629 49.2772 99.0608 48.352 98.7586 47.4472C98.0551 45.3349 95.3459 43.6512 92.596 42.9675C86.7987 41.5235 81.0701 41.2472 75.4104 42.1384C70.462 42.9165 66.7144 44.7405 65.101 48.5774C64.3975 50.2526 63.9646 51.9772 63.8022 53.751C63.7842 53.9449 63.7977 54.1388 63.8428 54.3327C63.8653 54.43 63.9369 54.517 64.0423 54.5751C64.1478 54.6332 64.2788 54.6579 64.4076 54.6439C65.4854 54.53 66.5904 54.4636 67.7223 54.4449C79.3136 54.2485 91.419 54.8225 103.014 55.2001C103.343 55.2103 103.663 55.2035 103.974 55.1797C104.252 55.1575 104.535 55.1533 104.823 55.1669C106.592 55.2485 111.273 55.1797 112.619 54.1209C112.705 54.0529 112.689 54.0036 112.572 53.973ZM91.1348 78.632C95.8634 78.6907 100.223 77.8693 103.044 74.8105C106.656 70.892 107.248 65.9147 106.044 61.1901C105.638 59.5931 104.903 58.0624 103.839 56.5981C103.787 56.5283 103.708 56.4918 103.602 56.4884C88.8551 55.9833 80.4771 55.6822 69.6638 55.6771C69.5352 55.6771 69.4462 55.7213 69.3966 55.8098C68.9636 56.5683 68.657 57.4221 68.4766 58.3711C67.7426 62.2386 67.445 66.328 68.4428 70.2695C68.8148 71.7389 69.4236 72.9439 70.2692 73.8844C71.8183 75.6064 74.6663 76.5401 77.3282 77.0912C82.0522 78.064 86.6544 78.5776 91.1348 78.632ZM87.969 91.9004C90.1607 92.3213 91.3987 93.2704 91.5374 94.9286C91.8688 98.8267 97.4666 98.4976 101.032 97.4771C102.729 96.9899 103.413 95.8444 102.97 94.5536C101.228 89.4692 97.8251 84.7624 95.8397 79.752C95.8059 79.6704 95.7314 79.6355 95.6164 79.6474C90.3163 80.2214 84.634 79.6984 79.4759 78.7877C79.3609 78.769 79.2707 78.7962 79.2053 78.8693C78.9347 79.172 78.689 79.4909 78.468 79.826C76.2875 83.1305 74.6764 86.6085 73.6346 90.26C73.2626 91.5611 71.913 96.699 74.4938 97.0077C77.0508 97.3122 79.4094 97.1651 81.5696 96.5664C82.4129 96.3317 82.9147 95.9771 83.0748 95.5026C83.6599 93.7474 84.864 91.306 87.969 91.9004Z" fill="#413E3D" stroke="#413E3D"/>
<path d="M91.2856 64.1054C91.2856 64.1804 91.246 64.2522 91.1756 64.3052C91.1052 64.3582 91.0097 64.388 90.9101 64.388H90.6734C90.4037 64.3874 90.1455 64.2721 89.9552 64.0673C89.765 63.8626 89.6584 63.5851 89.6587 63.2958V61.9516C89.6589 61.808 89.6854 61.6657 89.7369 61.5331C89.7883 61.4004 89.8636 61.2799 89.9585 61.1785C90.0534 61.077 90.166 60.9966 90.2898 60.9419C90.4137 60.8871 90.5463 60.8591 90.6802 60.8594H90.9169C91.0165 60.8594 91.112 60.8891 91.1824 60.9421C91.2528 60.9951 91.2923 61.067 91.2923 61.142L91.2856 64.1054Z" fill="#413E3D" stroke="#413E3D"/>
<path d="M82.0072 63.3103C82.386 63.8042 81.6351 64.3821 80.9519 64.1301C80.0218 63.7864 80.13 62.0323 80.1841 61.4263C80.2134 61.0767 80.4603 60.8883 80.9248 60.8611C80.9925 60.856 81.0579 60.862 81.121 60.879C81.4705 60.9689 81.6475 61.1522 81.652 61.4289C81.6656 61.9788 81.6385 62.8291 82.0072 63.3103Z" fill="#413E3D" stroke="#413E3D"/>
<path d="M72.982 71.5977C73.3202 72.3885 71.5343 72.6002 71.3449 71.6869C71.0676 70.3451 72.3427 68.6996 73.6855 68.0031C74.035 67.8212 74.3789 67.8271 74.7172 68.021C74.8637 68.1043 74.9381 68.2455 74.9404 68.4445C74.9404 68.5063 74.9234 68.5675 74.8902 68.6242C74.857 68.6808 74.8084 68.7317 74.7476 68.7736L73.9324 69.345C73.8355 69.4131 73.8163 69.4921 73.8749 69.5823L74.0001 69.7762C74.0542 69.8595 74.07 69.9471 74.0474 70.0389C73.6889 71.5415 79.6317 73.1462 80.9609 73.386C86.5891 74.4039 93.7259 74.1233 98.0992 70.9063C98.6089 70.5304 98.9606 70.101 99.1545 69.618C99.1612 69.5999 99.1623 69.5809 99.1578 69.5624C99.1534 69.544 99.1435 69.5265 99.1289 69.5113C99.1143 69.4961 99.0953 69.4836 99.0734 69.4746C99.0515 69.4657 99.0272 69.4607 99.0023 69.4598C98.6009 69.4445 98.3303 69.311 98.1905 69.0593C98.147 68.9816 98.129 68.8971 98.1381 68.813C98.1473 68.7289 98.1832 68.6477 98.2429 68.5761C98.3026 68.5046 98.3844 68.4448 98.4812 68.4019C98.5781 68.359 98.6872 68.3342 98.7994 68.3297C100.129 68.2761 101.644 69.3348 102.537 70.0058C102.893 70.2711 102.937 70.5636 102.669 70.8833C102.61 70.9548 102.52 71.0049 102.398 71.0339C102.022 71.1206 101.691 71.0619 101.407 70.8578L100.788 70.4114C100.66 70.3195 100.56 70.3348 100.491 70.4573C100.298 70.8043 100.044 71.1742 99.7092 71.4497C95.045 75.2611 87.1574 75.784 80.6633 74.6156C77.4568 74.0391 74.9415 73.0127 73.1173 71.5364C72.9527 71.4038 72.9076 71.4242 72.982 71.5977Z" fill="#413E3D" stroke="#413E3D"/>
<path d="M83.0193 81.7337C83.1705 81.6812 82.9881 81.7633 82.9472 81.7791C82.7462 81.8568 82.5571 81.949 82.3593 82.031C81.5522 82.3655 80.9894 82.8034 80.4683 83.3728C80.2354 83.6273 80.0005 83.8825 79.7751 84.1408C79.5818 84.3622 79.7961 84.2391 79.947 84.149C80.4102 83.8724 80.8081 83.5467 81.2558 83.2572C82.0564 82.7395 82.9664 82.288 83.865 81.8699C84.2445 81.6933 84.6439 81.5021 85.0545 81.3662C85.1891 81.3217 85.0029 81.4426 84.9769 81.4632C83.9357 82.2919 82.8365 83.0718 81.741 83.86C81.0708 84.3422 80.4203 84.8393 79.7501 85.3216C79.737 85.3311 79.2764 85.6437 79.5449 85.5673C80.022 85.4315 80.4507 85.0995 80.8537 84.8778C82.0072 84.243 83.1838 83.6059 84.4168 83.059C85.2054 82.7092 86.048 82.4384 86.8513 82.1094C87.3096 81.9217 86.509 82.2696 86.4298 82.3076C84.3359 83.3117 82.4559 84.5243 80.5737 85.7304C79.9256 86.1456 79.2052 86.5318 78.6715 87.035C78.4924 87.2039 78.8256 87.0712 78.9155 87.035C79.9246 86.6294 80.7676 85.9976 81.7105 85.5157C83.3431 84.6812 85.0633 83.9125 86.8347 83.2531C87.4434 83.0265 88.1971 82.8518 88.7313 82.5264C88.7491 82.5155 88.1726 82.7541 88.0602 82.8113C87.092 83.3038 86.1995 83.8902 85.293 84.4422C83.7138 85.4037 82.1476 86.3772 80.557 87.3282C80.1616 87.5646 79.7577 87.7945 79.3869 88.0528C79.2648 88.1378 79.0426 88.2722 78.971 88.3975C78.942 88.4482 79.1242 88.3893 79.1873 88.3604C79.5262 88.2051 79.8339 88.0095 80.1466 87.8278C83.0938 86.1155 86.3476 84.5424 89.7932 83.4492C90.0989 83.3522 90.4095 83.2649 90.7166 83.1705C90.7432 83.1623 90.9334 83.0901 90.7499 83.1602C90.0715 83.4192 89.4593 83.817 88.8644 84.1655C86.2834 85.6776 83.6523 87.1509 80.9896 88.5833C80.946 88.6068 79.8743 89.1841 79.972 89.2109C80.0959 89.2449 80.3027 89.1302 80.3851 89.0912C80.7949 88.8972 81.1884 88.6807 81.5885 88.476C84.611 86.9296 87.7793 85.5569 90.8497 84.0664C90.9196 84.0325 91.6425 83.7085 91.1491 83.8807C90.1128 84.2423 89.1942 84.7647 88.2654 85.2555C85.199 86.8763 82.0694 88.4666 79.1595 90.2431C78.9644 90.3623 78.3864 90.6636 78.6382 90.6519C79.152 90.628 79.7636 90.2149 80.1633 90.0202C83.5597 88.3654 87.1066 86.884 90.6889 85.4661C91.3967 85.1859 92.3047 84.9353 92.9126 84.533C93.083 84.4202 92.8205 84.4911 92.7796 84.5041C92.4215 84.6176 92.0873 84.778 91.7647 84.9376C90.2748 85.6749 88.8749 86.5116 87.4086 87.2745C85.5398 88.2469 83.6496 89.1961 81.7715 90.1585C81.2076 90.4474 80.6486 90.7417 80.0856 91.0317C79.8486 91.1538 79.5762 91.2691 79.3647 91.4178C79.2438 91.5028 79.3471 91.4928 79.4313 91.457C79.7496 91.3216 80.0404 91.1318 80.3324 90.9698C83.854 89.0156 87.6197 87.2809 91.4431 85.6767C91.4916 85.6563 93.1955 84.9682 93.1456 84.9087C93.0501 84.795 91.377 85.6063 91.3044 85.6395C89.1469 86.6272 87.073 87.7152 84.9436 88.7361C82.1961 90.0533 79.3155 91.3011 76.7805 92.8443C76.5318 92.9956 75.8402 93.4411 76.1538 93.3893C76.3716 93.3532 76.5811 93.2286 76.7527 93.1333C77.2938 92.8328 77.8025 92.4989 78.311 92.1692C80.0751 91.0255 81.8668 89.9596 83.8373 89.0148C85.983 87.9859 88.2136 87.1703 90.6001 86.5024C90.9974 86.3913 91.4187 86.2563 91.8396 86.199C92.1185 86.161 91.9905 86.2683 91.8701 86.3579C91.169 86.8799 90.4273 87.3873 89.6962 87.8856C87.2768 89.5346 84.4833 90.8536 81.8602 92.3116C81.3745 92.5816 81.8308 92.3439 82.0266 92.2167C83.5104 91.2525 84.9583 90.2565 86.5186 89.3596C88.6529 88.1325 90.9672 87.0742 93.3452 86.1308C94.3745 85.7225 95.4227 85.3284 96.5062 85.0057C96.7175 84.9428 96.0776 85.1252 95.8823 85.2122C94.5803 85.7922 93.3647 86.4772 92.139 87.1403C90.3787 88.0928 88.6026 89.0282 86.8485 89.9871C86.4616 90.1987 86.0679 90.4063 85.7034 90.6395C85.6236 90.6905 85.3986 90.8211 85.5037 90.8211C85.6892 90.8211 85.9903 90.6844 86.1359 90.6312C86.6869 90.4298 87.222 90.2045 87.7441 89.9644C89.6244 89.1 91.4318 88.1874 93.3868 87.4128C94.3834 87.018 97.4166 85.8963 96.4008 86.263C96.0558 86.3875 95.7284 86.5753 95.4137 86.7336C94.4166 87.2354 93.4484 87.7531 92.5411 88.3439C91.7826 88.8377 91.034 89.3529 90.3617 89.9128C90.2474 90.008 89.9322 90.2205 90.101 90.2431C90.6199 90.3127 91.3487 89.8238 91.7148 89.6362C92.7623 89.0993 93.7955 88.5337 94.8869 88.0466C95.2436 87.8874 95.6138 87.7477 95.9794 87.6007C96.0848 87.5583 96.2388 87.4695 96.362 87.4438C96.7421 87.3646 95.7472 87.8123 95.4359 87.9929C94.7929 88.366 94.176 88.7525 93.5837 89.1696C93.162 89.4665 92.7186 89.7476 92.3082 90.0532C92.0547 90.2419 92.7191 89.9382 92.7629 89.9169C93.3143 89.649 93.8044 89.3379 94.4016 89.1222C94.453 89.1036 95.143 88.9142 95.1281 88.9322C94.9511 89.1464 94.614 89.3518 94.3656 89.5165C93.873 89.843 93.3115 90.1592 92.7463 90.4124C92.7379 90.4161 92.3034 90.5862 92.4856 90.5776C92.8523 90.5601 93.2274 90.3696 93.5559 90.2638C94.1704 90.0658 94.795 89.8768 95.4359 89.7311C95.5776 89.699 95.7218 89.665 95.8657 89.6383C95.9139 89.6293 95.6755 89.7767 95.6605 89.7869C95.2139 90.0898 94.6941 90.3003 94.1937 90.5486C93.5407 90.8728 92.9105 91.2052 92.2305 91.4983C92.2223 91.5018 91.6831 91.7701 91.7924 91.7997C92.0287 91.8636 92.471 91.7045 92.6742 91.6428C93.4987 91.3922 94.2809 91.0614 95.081 90.7716C95.4223 90.648 95.7655 90.5298 96.118 90.4248C96.2376 90.3892 96.4405 90.3564 96.5423 90.2865C97.2789 89.7802 94.9182 91.1621 94.0883 91.5808C93.4872 91.8842 92.9072 92.2088 92.3082 92.514C92.3082 92.514 91.856 92.7412 92.0974 92.6791C92.5753 92.5562 93.0061 92.3038 93.4395 92.1176C94.2691 91.7611 95.1219 91.4495 96.0182 91.1969C96.457 91.0732 97.0185 90.8526 97.4989 90.8377C97.7145 90.831 97.1456 91.0228 96.9609 91.106C95.6207 91.7106 94.2507 92.2856 92.9265 92.9083C92.7037 93.013 92.9383 92.9961 93.0762 92.9888C93.6866 92.9563 94.2261 92.7844 94.7621 92.5738C95.5695 92.2565 96.3547 91.9091 97.1634 91.5932C97.3631 91.5152 97.9416 91.2674 97.7235 91.3104C97.2167 91.4103 96.7558 91.7071 96.3093 91.8988C95.5351 92.2312 94.7527 92.5532 93.9691 92.8732C93.658 93.0002 93.1465 93.116 92.8905 93.3067C92.787 93.3837 93.4025 93.3353 93.4228 93.3315C94.2158 93.18 95.0011 92.9432 95.7797 92.7534C96.4278 92.5955 97.0707 92.4236 97.7152 92.258C97.9333 92.2019 97.7154 92.273 97.6209 92.324C97.1706 92.5674 96.6742 92.7813 96.1846 92.9764C95.6822 93.1765 95.1731 93.3668 94.6678 93.5627C94.3405 93.6896 94.6191 93.6555 94.812 93.6184C95.3578 93.5135 95.8592 93.3076 96.3787 93.1498C96.6885 93.0556 97.0655 93.0057 97.3436 92.8814" stroke="#C2D7EA" stroke-width="3" stroke-linecap="round"/>
<path d="M68.4371 47.8772C67.8963 47.8772 69.2475 46.9986 69.4727 46.8482C70.4976 46.1635 71.6325 45.8935 72.7271 45.3357C73.6565 44.862 71.828 46.6208 71.6587 46.7614C70.6884 47.5675 69.2615 48.1963 68.4371 49.0798C68.1945 49.3399 68.4414 49.2758 68.6837 49.117C69.4673 48.6035 70.0879 47.9518 70.7547 47.3565C71.6138 46.5895 72.4702 45.8167 73.3681 45.0753C73.651 44.8417 74.1597 44.278 74.5844 44.1579C75.0298 44.0319 74.2408 44.8312 73.9927 45.1373C73.4311 45.8305 72.7039 46.409 71.9875 47.0094C70.9382 47.8887 70.1491 49.1127 68.9631 49.8795C68.6816 50.0615 69.4041 49.5972 69.4398 49.5633C70.3394 48.7108 71.3513 47.9378 72.2669 47.0962C73.1158 46.3157 73.9326 45.5842 74.905 44.8894C75.1725 44.6982 76.0146 44.1578 75.7268 44.3315C75.2148 44.6404 74.893 45.2252 74.4694 45.6022C73.4745 46.4877 72.4334 47.3608 71.3875 48.212C70.2479 49.1395 69.1515 50.095 68.018 51.0263C67.5546 51.407 66.8158 51.7756 66.5305 52.2599C66.3637 52.5429 67.1233 51.8308 67.4099 51.609C68.2462 50.9615 69.1868 50.4105 70.1548 49.8795C72.3654 48.6668 74.8686 47.5479 76.7623 46.0424C76.929 45.9098 77.7963 44.9244 77.3704 45.2303C74.5301 47.2707 71.9861 49.5373 69.111 51.5532C68.8434 51.7409 68.1136 52.3525 68.4043 52.1855C69.4271 51.5976 70.3187 50.821 71.3136 50.1956C72.771 49.2795 74.2998 48.4121 75.6528 47.4061C76.564 46.7286 77.3629 45.9265 78.3813 45.3357C78.5635 45.2299 79.1703 45.0047 79.1703 44.7778C79.1703 44.5028 78.6709 45.1785 78.4306 45.3853C76.4426 47.096 74.4622 48.799 72.4312 50.4808C72.2987 50.5905 71.2635 51.3694 71.4615 51.2246C72.0144 50.8202 72.6213 50.4321 73.2366 50.084C74.3692 49.4433 75.5485 48.8726 76.639 48.1872C77.9431 47.3674 79.0902 46.3995 80.4194 45.6084C80.6283 45.4841 82.5963 44.0904 81.8001 44.9389C79.7588 47.1146 77.2677 48.9634 74.8967 50.9271C74.6149 51.1605 73.1771 52.638 72.7107 52.638C72.4508 52.638 72.9867 52.3057 73.1298 52.1421C73.6296 51.5705 74.2008 51.0528 74.8146 50.549C77.0267 48.7332 79.5241 47.1867 82.0138 45.6022C82.4184 45.3447 82.527 45.1228 82.096 45.565C81.507 46.1693 80.9363 46.7824 80.3373 47.3813C79.1656 48.5528 77.8426 49.7924 76.3678 50.7597C75.7544 51.1621 76.3909 50.4566 76.524 50.332C77.3581 49.5509 78.4189 48.8118 79.3839 48.1252C81.0563 46.9353 82.8409 45.6058 84.7587 44.6414C86.6877 43.6714 81.7582 47.3089 80.1893 48.5963C78.9572 49.6074 77.7794 50.662 76.4911 51.6338C76.2691 51.8012 75.8158 52.1388 76.3103 51.7577C78.3183 50.2102 79.8584 48.4093 82.022 46.9474C82.4607 46.6509 82.8877 46.3502 83.3041 46.0362C83.5834 45.8254 83.7298 45.7567 83.5013 46.1229C82.407 47.877 80.2676 49.0756 78.5868 50.487C78.012 50.9696 77.4133 51.4169 76.7459 51.8259C76.2888 52.106 76.8802 51.514 76.9349 51.4602C78.0553 50.3568 79.4389 49.3403 80.8303 48.4351C82.2919 47.4844 83.9753 46.7853 85.4737 45.8812C85.5093 45.8597 86.3684 45.2064 86.3859 45.2241C86.5204 45.3593 85.3382 46.4329 85.26 46.5135C84.3026 47.4995 83.0914 48.2863 82.0631 49.2224C81.1208 50.0802 80.2203 50.9501 79.236 51.7825C78.6591 52.2704 79.163 51.7851 79.3675 51.5842C80.2902 50.6772 81.5241 49.8437 82.6712 49.1046C84.506 47.9225 86.5171 46.9105 88.2268 45.6208C89.6719 44.5308 85.8854 48.1535 84.5615 49.3278C83.778 50.0227 83.0745 50.7646 82.2932 51.4602C82.1985 51.5445 81.6822 52.0557 81.9973 51.6214C83.3106 49.8111 85.7008 48.4211 87.783 47.1458C88.5596 46.6701 89.3824 46.2113 90.0842 45.6704C90.1146 45.647 90.5434 45.159 90.5937 45.2241C90.8533 45.5597 89.7622 46.5879 89.5582 46.811C88.4625 48.0094 87.1555 49.0962 85.8764 50.1832C85.2325 50.7304 84.5227 51.247 84.0026 51.8693C83.8181 52.0901 83.5645 52.2439 83.9533 51.9561C86.391 50.1521 89.3861 48.7866 91.9579 47.0962C92.0813 47.0151 93.548 45.8304 93.0756 46.4515C92.4162 47.3183 91.6566 48.1251 90.7827 48.8753C89.889 49.6424 88.9962 50.3994 88.0789 51.1503C87.6265 51.5205 87.344 52.0145 86.879 52.3652C86.4635 52.6787 87.6396 51.6874 88.0625 51.3796C89.0991 50.6252 90.2534 49.987 91.3416 49.2782C92.2085 48.7135 93.1037 48.2049 93.9961 47.6665C94.2224 47.5299 94.4642 47.3878 94.67 47.2325C94.6737 47.2298 94.8224 47.0684 94.8343 47.0714C95.0428 47.1238 91.9342 50.0227 91.6785 50.2638C91.3808 50.5445 90.9982 51.1618 90.5855 51.3486C90.0456 51.593 91.4029 50.6168 91.9004 50.3258C93.1446 49.598 94.8174 48.3236 96.4205 48.0818C96.6359 48.0493 96.1729 48.3562 96.0342 48.4847C95.6562 48.835 95.2507 49.1649 94.8426 49.4951C94.1041 50.0926 93.3302 50.6483 92.5661 51.2246C92.1654 51.5269 91.957 51.9055 91.5963 52.2165C91.4907 52.3076 92.0729 51.7315 92.1716 51.6462C92.9785 50.949 94.1297 50.2107 95.1795 49.7121C95.5455 49.5383 95.0859 50.3749 95.0645 50.4188C94.757 51.0483 94.3614 51.6322 93.7988 52.1545C93.709 52.2379 93.3389 52.6984 93.355 52.6876C94.181 52.1338 95.05 51.598 95.8534 51.0263C96.7406 50.395 95.736 51.9578 95.5986 52.1731C95.2266 52.7559 94.6582 53.2779 95.7384 52.6318C96.0586 52.4402 96.4908 52.2254 96.8478 52.0739C96.9815 52.0172 97.2834 51.8466 97.2834 51.9623C97.2834 52.123 97.1942 52.4737 97.2998 52.6132C97.4866 52.8597 98.7817 52.6054 99.0585 52.5636" stroke="#FED78A" stroke-width="3" stroke-linecap="round"/>
<defs>
<clipPath id="clip0_721_30">
<rect width="129.053" height="70.7012" fill="white" transform="matrix(-1 0 0 1 129.054 86.4744)"/>
</clipPath>
</defs>
</svg>
