<svg width="319" height="72" viewBox="0 0 319 72" fill="none" xmlns="http://www.w3.org/2000/svg">
<path d="M9 7L26.7638 65H278.582L307 18.901L9 7Z" fill="white" stroke="#E5C983" stroke-width="13"/>
<path d="M32.9267 35.926V45H31.5747V35.926H32.9267ZM38.2177 35.926V45H36.8787V35.926H38.2177ZM32.5237 41.009L32.3417 39.67L35.0067 39.319L37.6457 39.67L37.4637 41.009L35.0067 40.684L32.5237 41.009ZM43.9094 35.952L45.6904 41.165L46.9514 44.844L45.6644 45.273L44.7804 42.686L41.3354 43.245L40.5944 45.286L39.3204 44.831L39.7884 43.505L39.4764 43.557L39.2554 42.218L40.3214 42.049L42.5054 35.952H43.9094ZM41.8554 41.789L44.3384 41.386L43.1814 38.045L41.8554 41.789ZM56.9737 35.9V44.974H54.3867L52.8917 43.817V44.974H47.4057V35.9H48.7577V43.622H51.5397V39.449H52.8917V42.101L54.8547 43.622H55.6217V35.9H56.9737ZM62.946 43.635H64.597L66.547 40.931V35.9H67.899V43.635H69.264L68.939 46.898L67.6 46.755L67.769 44.987H66.547V43.245L65.299 44.987H61.659L61.282 35.926L62.621 35.861L62.946 43.635ZM75.4232 35.913V37.265H71.9782L72.5892 39.631H74.3442V40.983H71.7312L71.5102 43.635H75.3452V44.987H70.0542L70.4832 39.631H71.1982L70.2362 35.913H75.4232ZM77.6904 35.926V45H76.3384V35.926H77.6904ZM82.9814 35.926V45H81.6424V35.926H82.9814ZM77.2874 41.009L77.1054 39.67L79.7704 39.319L82.4094 39.67L82.2274 41.009L79.7704 40.684L77.2874 41.009ZM87.893 35.939L90.896 35.705L91 37.057L88.244 37.265L88.023 45.013L86.671 45L86.619 37.213L84.032 37.057L84.11 35.705L87.893 35.939ZM96.3225 35.835L99.6895 38.422L97.4795 41.906L94.4895 40.866V45.117H93.1375V40.385L91.9155 39.956L92.3575 38.682L93.1375 38.955V35.835H96.3225ZM96.9205 40.294L97.8955 38.734L95.8675 37.187H94.4895V39.423L96.9205 40.294ZM103.224 40.671H107.137V42.01H103.224V40.671ZM118.097 35.445L117.824 45.026L116.472 44.987L116.693 36.953L113.625 37.278V42.868L113.001 44.22L111.818 45.039L111.051 43.934L111.935 43.31L112.286 42.582V36.069L118.097 35.445ZM121.5 39.501L123.359 38.89L124.36 35.705L125.647 36.121L122.878 44.961L119.641 44.532L119.823 43.206L121.929 43.479L122.865 40.476L120.72 41.178L118.744 36.16L120.005 35.666L121.5 39.501ZM132.625 35.9V44.935H131.273V41.191L128.348 42.088L126.177 39.878V35.9H127.529V39.332L128.738 40.554L130.857 39.904L131.286 35.835L132.625 35.9ZM143.251 35.9V44.974H140.664L139.169 43.817V44.974H133.683V35.9H135.035V43.622H137.817V39.449H139.169V42.101L141.132 43.622H141.899V35.9H143.251ZM149.665 35.913V37.265H146.22L146.831 39.631H148.586V40.983H145.973L145.752 43.635H149.587V44.987H144.296L144.725 39.631H145.44L144.478 35.913H149.665ZM155.95 35.913V37.265H152.505L153.116 39.631H154.871V40.983H152.258L152.037 43.635H155.872V44.987H150.581L151.01 39.631H151.725L150.763 35.913H155.95ZM169.15 35.9L169.813 44.961L168.461 45.052L167.967 38.058L165.601 44.558L163.924 44.519L161.909 38.37L161.454 45.052L160.128 44.961L160.726 35.926H162.546L164.795 42.829L167.304 35.9H169.15ZM176.224 35.913V37.265H172.779L173.39 39.631H175.145V40.983H172.532L172.311 43.635H176.146V44.987H170.855L171.284 39.631H171.999L171.037 35.913H176.224ZM182.651 35.9L184.094 37.369L183.132 38.305L182.092 37.226H179.518L178.192 40.554L179.557 43.674H181.897L183.834 42.049L184.692 43.076L182.378 45H178.686L176.749 40.58L178.608 35.9H182.651ZM189.214 35.939L192.217 35.705L192.321 37.057L189.565 37.265L189.344 45.013L187.992 45L187.94 37.213L185.353 37.057L185.431 35.705L189.214 35.939ZM199.72 36.563L201.072 42.205L197.991 45.273H195.469L192.453 42.075L194 36.797L196.782 35.367L199.72 36.563ZM196.054 43.934H197.432L199.59 41.776L198.576 37.551L196.847 36.849L195.131 37.72L193.961 41.711L196.054 43.934ZM212.663 35.926L212.299 43.635H214.418L214.106 47.158L212.754 47.041L212.936 44.987H210.895L211.246 37.265H208.048L208.412 41.399L207.437 44.35L206.332 45L206.657 46.885L205.331 47.106L204.863 44.311L206.306 43.44L207.047 41.243L206.553 35.926H212.663ZM221.869 35.445L221.596 45.026L220.244 44.987L220.465 36.953L217.397 37.278V42.868L216.773 44.22L215.59 45.039L214.823 43.934L215.707 43.31L216.058 42.582V36.069L221.869 35.445ZM228.496 35.653L229.029 44.974L227.677 45.052L227.404 41.022L225.35 41.295L224.622 41.893L224.258 45.078L222.919 44.922L223.335 41.204L224.765 40.008H224.804L223.4 39.579L223.075 37.031L224.804 35.458L228.496 35.653ZM227.352 39.345L227.209 36.94L225.298 36.836L224.505 37.564L224.635 38.539L227.352 39.345ZM237.063 35.939L240.066 35.705L240.17 37.057L237.414 37.265L237.193 45.013L235.841 45L235.789 37.213L233.202 37.057L233.28 35.705L237.063 35.939ZM246.454 35.913V37.265H243.009L243.62 39.631H245.375V40.983H242.762L242.541 43.635H246.376V44.987H241.085L241.514 39.631H242.229L241.267 35.913H246.454ZM253.987 44.662L252.83 45.351L250.841 42.075L249.216 45.312L248.007 44.701L250.022 40.697L247.383 36.316L248.527 35.627L250.737 39.28L252.557 35.666L253.766 36.277L251.569 40.645L253.987 44.662ZM256.757 43.57L256.016 46.495L254.716 46.157L255.015 44.987L254.703 45L254.651 43.648L256.757 43.57ZM266.983 36.511L263.382 41.113H262.758L262.394 45.039L261.055 44.974V35.913H262.407V39.761H262.719L265.93 35.679L266.983 36.511ZM263.278 39.826L265.904 40.775L267.412 44.74L266.164 45.221L264.864 41.828L262.823 41.074L263.278 39.826ZM271.95 35.939L274.953 35.705L275.057 37.057L272.301 37.265L272.08 45.013L270.728 45L270.676 37.213L268.089 37.057L268.167 35.705L271.95 35.939ZM282.456 36.563L283.808 42.205L280.727 45.273H278.205L275.189 42.075L276.736 36.797L279.518 35.367L282.456 36.563ZM278.79 43.934H280.168L282.326 41.776L281.312 37.551L279.583 36.849L277.867 37.72L276.697 41.711L278.79 43.934Z" fill="#1F293F"/>
</svg>
