<svg width="688" height="141" viewBox="0 0 688 141" fill="none" xmlns="http://www.w3.org/2000/svg">
<path d="M58 12.0183L92.097 130.259H575.454L630 36.2802L58 12.0183Z" fill="white" stroke="#E5C983" stroke-width="21"/>
<path d="M123.601 59.367V75.421H121.209V59.367H123.601ZM132.962 59.367V75.421H130.593V59.367H132.962ZM122.888 68.36L122.566 65.991L127.281 65.37L131.95 65.991L131.628 68.36L127.281 67.785L122.888 68.36ZM143.032 59.413L146.183 68.636L148.414 75.145L146.137 75.904L144.573 71.327L138.478 72.316L137.167 75.927L134.913 75.122L135.741 72.776L135.189 72.868L134.798 70.499L136.684 70.2L140.548 59.413H143.032ZM139.398 69.74L143.791 69.027L141.744 63.116L139.398 69.74ZM166.146 59.321V75.375H161.569L158.924 73.328V75.375H149.218V59.321H151.61V72.983H156.532V65.6H158.924V70.292L162.397 72.983H163.754V59.321H166.146ZM176.712 73.006H179.633L183.083 68.222V59.321H185.475V73.006H187.89L187.315 78.779L184.946 78.526L185.245 75.398H183.083V72.316L180.875 75.398H174.435L173.768 59.367L176.137 59.252L176.712 73.006ZM198.787 59.344V61.736H192.692L193.773 65.922H196.878V68.314H192.255L191.864 73.006H198.649V75.398H189.288L190.047 65.922H191.312L189.61 59.344H198.787ZM202.798 59.367V75.421H200.406V59.367H202.798ZM212.159 59.367V75.421H209.79V59.367H212.159ZM202.085 68.36L201.763 65.991L206.478 65.37L211.147 65.991L210.825 68.36L206.478 67.785L202.085 68.36ZM220.849 59.39L226.162 58.976L226.346 61.368L221.47 61.736L221.079 75.444L218.687 75.421L218.595 61.644L214.018 61.368L214.156 58.976L220.849 59.39ZM235.763 59.206L241.72 63.783L237.81 69.947L232.52 68.107V75.628H230.128V67.256L227.966 66.497L228.748 64.243L230.128 64.726V59.206H235.763ZM236.821 67.095L238.546 64.335L234.958 61.598H232.52V65.554L236.821 67.095ZM247.973 67.762H254.896V70.131H247.973V67.762ZM274.287 58.516L273.804 75.467L271.412 75.398L271.803 61.184L266.375 61.759V71.649L265.271 74.041L263.178 75.49L261.821 73.535L263.385 72.431L264.006 71.143V59.62L274.287 58.516ZM280.308 65.692L283.597 64.611L285.368 58.976L287.645 59.712L282.746 75.352L277.019 74.593L277.341 72.247L281.067 72.73L282.723 67.417L278.928 68.659L275.432 59.781L277.663 58.907L280.308 65.692ZM299.991 59.321V75.306H297.599V68.682L292.424 70.269L288.583 66.359V59.321H290.975V65.393L293.114 67.555L296.863 66.405L297.622 59.206L299.991 59.321ZM318.79 59.321V75.375H314.213L311.568 73.328V75.375H301.862V59.321H304.254V72.983H309.176V65.6H311.568V70.292L315.041 72.983H316.398V59.321H318.79ZM330.139 59.344V61.736H324.044L325.125 65.922H328.23V68.314H323.607L323.216 73.006H330.001V75.398H320.64L321.399 65.922H322.664L320.962 59.344H330.139ZM341.257 59.344V61.736H335.162L336.243 65.922H339.348V68.314H334.725L334.334 73.006H341.119V75.398H331.758L332.517 65.922H333.782L332.08 59.344H341.257ZM364.611 59.321L365.784 75.352L363.392 75.513L362.518 63.139L358.332 74.639L355.365 74.57L351.8 63.691L350.995 75.513L348.649 75.352L349.707 59.367H352.927L356.906 71.58L361.345 59.321H364.611ZM377.127 59.344V61.736H371.032L372.113 65.922H375.218V68.314H370.595L370.204 73.006H376.989V75.398H367.628L368.387 65.922H369.652L367.95 59.344H377.127ZM388.498 59.321L391.051 61.92L389.349 63.576L387.509 61.667H382.955L380.609 67.555L383.024 73.075H387.164L390.591 70.2L392.109 72.017L388.015 75.421H381.483L378.056 67.601L381.345 59.321H388.498ZM400.11 59.39L405.423 58.976L405.607 61.368L400.731 61.736L400.34 75.444L397.948 75.421L397.856 61.644L393.279 61.368L393.417 58.976L400.11 59.39ZM418.697 60.494L421.089 70.476L415.638 75.904H411.176L405.84 70.246L408.577 60.908L413.499 58.378L418.697 60.494ZM412.211 73.535H414.649L418.467 69.717L416.673 62.242L413.614 61L410.578 62.541L408.508 69.602L412.211 73.535ZM441.596 59.367L440.952 73.006H444.701L444.149 79.239L441.757 79.032L442.079 75.398H438.468L439.089 61.736H433.431L434.075 69.05L432.35 74.271L430.395 75.421L430.97 78.756L428.624 79.147L427.796 74.202L430.349 72.661L431.66 68.774L430.786 59.367H441.596ZM457.883 58.516L457.4 75.467L455.008 75.398L455.399 61.184L449.971 61.759V71.649L448.867 74.041L446.774 75.49L445.417 73.535L446.981 72.431L447.602 71.143V59.62L457.883 58.516ZM469.608 58.884L470.551 75.375L468.159 75.513L467.676 68.383L464.042 68.866L462.754 69.924L462.11 75.559L459.741 75.283L460.477 68.705L463.007 66.589H463.076L460.592 65.83L460.017 61.322L463.076 58.539L469.608 58.884ZM467.584 65.416L467.331 61.161L463.95 60.977L462.547 62.265L462.777 63.99L467.584 65.416ZM484.765 59.39L490.078 58.976L490.262 61.368L485.386 61.736L484.995 75.444L482.603 75.421L482.511 61.644L477.934 61.368L478.072 58.976L484.765 59.39ZM501.381 59.344V61.736H495.286L496.367 65.922H499.472V68.314H494.849L494.458 73.006H501.243V75.398H491.882L492.641 65.922H493.906L492.204 59.344H501.381ZM514.707 74.823L512.66 76.042L509.141 70.246L506.266 75.973L504.127 74.892L507.692 67.808L503.023 60.057L505.047 58.838L508.957 65.301L512.177 58.907L514.316 59.988L510.429 67.716L514.707 74.823ZM519.608 72.891L518.297 78.066L515.997 77.468L516.526 75.398L515.974 75.421L515.882 73.029L519.608 72.891ZM537.701 60.402L531.33 68.544H530.226L529.582 75.49L527.213 75.375V59.344H529.605V66.152H530.157L535.838 58.93L537.701 60.402ZM531.146 66.267L535.792 67.946L538.46 74.961L536.252 75.812L533.952 69.809L530.341 68.475L531.146 66.267ZM546.488 59.39L551.801 58.976L551.985 61.368L547.109 61.736L546.718 75.444L544.326 75.421L544.234 61.644L539.657 61.368L539.795 58.976L546.488 59.39ZM565.075 60.494L567.467 70.476L562.016 75.904H557.554L552.218 70.246L554.955 60.908L559.877 58.378L565.075 60.494ZM558.589 73.535H561.027L564.845 69.717L563.051 62.242L559.992 61L556.956 62.541L554.886 69.602L558.589 73.535Z" fill="#1F293F"/>
</svg>
