<svg width="1920" height="1904" viewBox="0 0 1920 1904" fill="none" xmlns="http://www.w3.org/2000/svg">
<path d="M1304.58 1904C1287.12 1904 1263.85 1897.81 1252.21 1885.44C1217.29 1854.5 1205.65 1792.62 1240.57 1755.49L1292.94 1681.23L937.951 1811.18C897.214 1823.56 856.478 1811.18 833.2 1774.05C809.922 1736.93 815.74 1687.42 844.838 1656.48L1065.98 1415.15L763.365 1625.54C728.447 1650.29 676.071 1644.1 646.974 1606.98C617.876 1569.85 617.876 1520.35 652.794 1483.22L1159.09 920.113L123.214 1705.98C88.297 1730.74 35.9211 1724.55 6.82331 1693.61C-22.2744 1656.48 -22.2744 1606.98 6.82331 1569.85L891.395 548.834L402.552 839.669C367.635 864.421 315.259 852.045 291.981 814.917C262.883 777.789 268.703 728.286 297.801 691.158L524.763 437.451C489.846 443.639 449.11 431.262 425.832 387.947C402.553 344.631 420.011 288.939 460.747 264.187L908.853 10.4808C943.771 -8.08317 996.146 -1.89557 1019.42 35.2323C1042.7 72.3601 1042.7 121.864 1013.6 152.803L815.74 375.571L1287.12 90.9236C1322.04 66.1718 1374.42 78.5483 1397.7 115.676C1426.79 152.804 1420.97 202.307 1391.88 233.247L705.169 1025.31L1781.79 208.496C1816.7 183.744 1869.08 189.932 1898.18 220.871C1927.27 251.811 1927.27 313.691 1898.18 344.631L1275.48 1056.25L1613.02 827.293C1647.94 802.541 1700.31 808.729 1729.41 845.857C1758.51 882.985 1752.69 932.489 1723.59 969.617L1228.93 1507.97L1519.91 1402.77C1554.82 1390.4 1595.56 1402.77 1618.84 1433.71C1642.12 1464.65 1642.12 1514.16 1618.84 1545.1L1380.24 1866.87C1356.96 1891.62 1333.68 1904 1304.58 1904Z" fill="#FFE7B9" fill-opacity="0.51"/>
</svg>
