<svg width="739" height="412" viewBox="0 0 739 412" fill="none" xmlns="http://www.w3.org/2000/svg">
<path d="M606.181 130.485C566.96 129.319 533.614 141.371 506.144 166.643C474.106 196.102 458.996 233.593 460.814 279.115C460.826 279.293 460.72 279.509 460.499 279.765L370.638 279.532C367.667 272.511 364.929 267.057 362.423 263.169C333.839 218.797 277.983 203.967 231.673 230.127C231.795 210.254 231.8 190.415 231.689 170.609C231.673 167.293 231.556 163.127 232.72 160.128C236.102 151.386 242.504 147.009 251.926 146.998C299.573 146.92 347.857 146.926 396.778 147.015C396.913 147.015 397.044 146.963 397.143 146.87C397.242 146.777 397.302 146.65 397.31 146.515C400.735 109.801 404.061 73.7327 407.287 38.3081C407.675 34.0203 407.792 29.6492 407.636 25.1947C407.004 6.98259 419.476 -0.0156714 435.788 0.0509787C483.612 0.239821 531.037 0.223109 578.062 0.000942324C591.199 -0.0490453 602.739 1.8505 607.412 15.1139C608.443 18.0132 608.781 21.9289 608.426 26.861C608.116 31.2266 607.911 35.8199 607.811 40.6409C607.201 70.589 606.658 100.537 606.181 130.485Z" fill="#AEC1BF"/>
<path d="M606.181 130.485C643.495 132.74 674.391 146.525 698.868 171.841C741.87 216.297 751.531 281.98 721.932 336.683C690.155 395.469 620.498 423.095 557.127 402.534C528.448 393.225 505.035 376.19 486.888 351.43C486.71 351.197 486.527 351.041 486.339 350.963C486.117 350.874 485.879 350.819 485.624 350.797L485.773 350.347C485.84 350.102 485.807 349.875 485.674 349.664C471.362 328.88 463.131 305.852 460.98 280.581C460.947 280.225 460.786 279.953 460.498 279.764C460.72 279.509 460.825 279.292 460.814 279.114C458.996 233.592 474.106 196.102 506.143 166.642C533.614 141.371 566.96 129.318 606.181 130.485Z" fill="#848484"/>
<path d="M64.2728 198.418L104.78 308.424L115.456 337.417L76.262 361.694C74.9096 362.527 73.801 362.277 72.9363 360.944L0.751739 250.322C0.180759 249.447 -0.0771663 248.402 0.0200784 247.356L4.8091 195.369C4.84573 194.943 4.97856 194.532 5.19751 194.165C5.41647 193.798 5.71581 193.486 6.07287 193.253L85.308 141.566C85.6766 141.327 86.1054 141.205 86.5385 141.216C87.9131 141.26 88.5893 141.916 88.5672 143.182C88.5561 143.971 88.3787 144.726 88.0351 145.448C79.5323 163.188 71.6116 180.845 64.2728 198.418Z" fill="#AEC1BF"/>
<path d="M198.316 256.489L104.78 308.426L64.2729 198.42C71.1904 193.755 77.4151 191.206 82.9468 190.772C91.9373 190.072 100.246 193.311 107.873 200.487C108.272 200.864 108.693 200.886 109.137 200.553C128.958 185.99 158.125 197.121 163.063 221.198C163.174 221.742 163.507 221.965 164.061 221.865C185.495 217.999 203.454 234.561 198.316 256.489Z" fill="#A69E89"/>
<path d="M370.638 279.531C371.259 281.664 371.935 283.975 372.666 286.463C379.041 308.013 378.215 329.241 370.189 350.147C370.1 350.369 370.2 350.614 370.488 350.88C370.034 350.958 369.751 351.13 369.64 351.397C361.603 370.281 349.453 385.049 333.19 395.702C293.581 421.663 240.087 415.397 208.41 380.023C189.004 358.378 179.293 329.319 184.049 300.026C184.47 297.438 184.869 294.866 185.246 292.311C186.144 289.856 186.992 287.357 187.79 284.813C191.238 273.794 196.465 263.702 203.471 254.537C203.593 254.371 203.648 254.226 203.637 254.104C203.615 253.949 203.515 253.815 203.338 253.704C203.892 253.327 204.374 252.904 204.784 252.438C212.544 243.507 221.507 236.07 231.673 230.127C277.983 203.967 333.839 218.796 362.423 263.169C364.929 267.056 367.667 272.511 370.638 279.531Z" fill="#848484"/>
<path d="M203.337 253.704C203.514 253.815 203.614 253.948 203.636 254.104C203.647 254.226 203.592 254.37 203.47 254.537C196.464 263.701 191.237 273.793 187.789 284.813C186.991 287.357 186.143 289.856 185.245 292.311L115.455 337.416L104.779 308.424L198.315 256.486L203.337 253.704Z" fill="#1E5279"/>
<path d="M370.637 279.53L460.498 279.764C460.786 279.953 460.947 280.225 460.98 280.58C463.131 305.852 471.362 328.879 485.673 349.663C485.806 349.874 485.84 350.102 485.773 350.346L485.624 350.796L370.487 350.879C370.199 350.613 370.099 350.368 370.188 350.146C378.214 329.24 379.04 308.012 372.666 286.462C371.934 283.974 371.258 281.663 370.637 279.53Z" fill="#1E5279"/>
</svg>
