<svg width="83" height="74" viewBox="0 0 83 74" fill="none" xmlns="http://www.w3.org/2000/svg">
<path d="M23.7206 21.9783C26.8849 19.8567 29.8126 18.177 32.5038 16.939C32.6141 16.8888 32.7358 16.8622 32.8595 16.8611C32.9833 16.8601 33.1056 16.8846 33.2169 16.9329C33.4672 17.0429 33.5934 17.1915 33.5957 17.3788C33.6002 17.8532 33.375 18.2014 32.9201 18.4233C29.0369 20.3148 25.6565 22.3997 22.7788 24.6781C22.3853 24.9896 21.9394 25.1189 21.4412 25.066C21.3161 25.0538 21.241 25.1026 21.216 25.2126C19.9637 30.6916 19.9944 36.1279 22.929 40.8281C24.7818 43.7936 27.9211 45.6566 31.4289 46.8508C37.7621 49.007 44.433 49.4559 51.4418 48.1976C55.1612 47.5288 58.1981 46.3102 60.1772 43.2989C61.6354 41.0836 62.5726 38.4867 62.9889 35.5079C63.3199 33.1318 62.8285 30.3526 62.286 28.0162C62.2587 27.9042 62.1813 27.8554 62.0539 27.8696C60.8528 28.0162 59.894 27.5367 58.7747 27.1458C54.9701 25.8112 51.4554 23.3465 48.5721 20.6314C46.1255 18.3286 44.3 15.6502 44.0236 12.4129C43.9803 11.9018 44.0747 11.4427 44.3068 11.0355C44.3724 10.9192 44.4772 10.8246 44.606 10.7653C44.7349 10.706 44.881 10.6851 45.0233 10.7056C45.4464 10.7626 45.6523 10.9713 45.641 11.3317C45.6239 11.8479 45.5045 12.2938 45.6171 12.8252C46.4872 16.9238 49.879 20.0939 53.6973 22.7571C56.0677 24.4083 58.6223 25.6218 61.3612 26.3975C61.4012 26.4093 61.4443 26.4098 61.4846 26.3989C61.5249 26.3879 61.5605 26.3661 61.5864 26.3365C61.7138 26.196 61.7582 26.0341 61.7195 25.8509C61.5853 25.1932 61.3726 24.6231 61.0814 24.1406C61.0223 24.0428 61.0064 23.94 61.0337 23.8321L61.1087 23.5206C61.1383 23.3964 61.1224 23.2763 61.0609 23.1602C58.8873 19.1655 54.8199 17.1986 50.5273 15.2165C50.3621 15.1417 50.2316 15.0162 50.1588 14.8623C49.9313 14.396 49.9336 14.0855 50.1656 13.9308C50.5069 13.7007 50.8662 13.6752 51.2439 13.8544L54.2603 15.2868C54.3968 15.3519 54.4889 15.3183 54.5367 15.186C55.5445 12.3396 57.1573 9.91157 59.3753 7.90198C59.7677 7.54465 59.9725 6.97049 60.4945 6.80557C61.5353 6.47267 62.5624 6.22223 63.2141 7.30033C63.2778 7.4062 63.3779 7.45609 63.5144 7.44998C66.1009 7.30644 68.6566 7.53549 71.1646 7.64544C71.3011 7.65155 71.3614 7.59352 71.3455 7.47136C71.0407 5.24391 71.0122 3.21701 71.2602 1.39066C71.3102 1.02417 71.4604 0.676012 71.7106 0.34617C72.1849 -0.276864 73.2905 -0.0172688 73.1131 0.792065C72.7309 2.51457 72.6524 4.20858 72.8776 5.87407C72.9003 6.03289 72.9538 6.04205 73.038 5.90156C73.957 4.34805 74.9136 2.99508 75.9077 1.84267C76.0159 1.71825 76.1703 1.63086 76.3445 1.59529C77.1862 1.43037 77.5047 1.75512 77.2999 2.56955C77.2751 2.66238 77.2311 2.74947 77.1702 2.82609C75.8554 4.43458 74.6725 6.11738 73.6215 7.8745C73.6107 7.89298 73.6056 7.91366 73.6065 7.93448C73.6075 7.9553 73.6146 7.97554 73.627 7.99315C73.6394 8.01077 73.6568 8.02517 73.6774 8.03489C73.698 8.04462 73.7211 8.04934 73.7443 8.04858C76.2921 7.95696 78.8024 7.97528 81.2752 8.10355C81.9098 8.13613 82.3273 8.38861 82.5275 8.86097C82.5616 8.94445 82.5639 9.02996 82.5343 9.11751C82.4069 9.5064 82.118 9.68558 81.6676 9.65504C79.4155 9.50233 77.1475 9.4331 74.8636 9.44735C74.6793 9.44735 74.6634 9.49419 74.8158 9.58785C76.1875 10.4308 77.6662 11.1597 79.2517 11.7746C79.5975 11.9069 79.7704 12.14 79.7704 12.474C79.7727 12.5595 79.7465 12.6379 79.6919 12.7091C79.4326 13.0471 79.0811 13.1632 78.6375 13.0573C77.7822 12.8516 77.0701 12.59 76.5014 12.2724C75.1138 11.4966 73.6192 10.5988 72.0177 9.57868C71.8994 9.50335 71.7959 9.41579 71.7072 9.31603C71.6367 9.23459 71.5445 9.18979 71.4308 9.18165C68.7715 8.99229 66.1327 8.90475 63.5144 8.919C63.4511 8.91995 63.3893 8.93602 63.3353 8.96556C63.2813 8.99509 63.2371 9.03701 63.2073 9.08697C62.5692 10.162 60.9313 11.1851 59.8632 9.81079C59.8527 9.79704 59.8386 9.78578 59.8221 9.77792C59.8056 9.77005 59.7871 9.7658 59.7682 9.7655C59.7493 9.7652 59.7305 9.76888 59.7132 9.77621C59.6959 9.78354 59.6807 9.79434 59.6688 9.80774C58.015 11.6483 56.7638 13.6223 55.9153 15.7296C55.8766 15.8244 55.8748 15.9281 55.9101 16.024C55.9454 16.1199 56.0157 16.2023 56.1098 16.258C59.3275 18.1607 61.9106 20.5856 63.1902 23.8993C63.5417 24.8094 63.4052 25.7287 63.6577 26.6571C64.4937 29.7265 65.125 33.3364 64.5381 36.4974C63.4973 42.0895 60.9177 47.2295 54.5674 49.0192C54.2376 49.1128 54.2455 49.1688 54.5913 49.1872L64.7223 49.688C65.0167 49.7018 65.3056 49.6192 65.5344 49.4559C66.9266 48.4623 68.6828 47.9574 70.803 47.9411C71.3125 47.937 71.5912 48.161 71.6389 48.613C71.6458 48.67 71.6424 48.726 71.6287 48.781C71.5332 49.1413 71.2795 49.3419 70.8678 49.3826C70.0238 49.4661 69.1901 49.5964 68.3666 49.7735C67.0938 50.0454 66.2783 51.2029 64.9236 51.1693C61.4204 51.0817 57.4747 50.8608 53.0865 50.5065C52.9432 50.4943 52.8988 50.5483 52.9534 50.6684C54.4719 53.8935 55.7139 57.3233 55.7856 60.7774C55.8402 63.3184 54.4275 65.667 51.2814 65.7861C49.8415 65.8411 48.2536 65.779 46.5179 65.5998C46.3814 65.5856 46.3132 65.6406 46.3132 65.7648C46.295 68.3974 46.5077 70.8753 46.9513 73.1984C46.9703 73.2993 46.9637 73.4026 46.9317 73.5005C46.8998 73.5984 46.8435 73.6883 46.767 73.7634C46.4007 74.1258 45.9674 74.0719 45.4669 73.6016C45.3535 73.4961 45.2786 73.3619 45.252 73.2167C44.7856 70.8345 44.6344 68.319 44.7981 65.6701C44.805 65.552 44.7435 65.4858 44.6139 65.4716L34.947 64.3538C34.7945 64.3375 34.7058 64.3965 34.6808 64.5309L33.2647 72.2425C33.1919 72.6354 32.9337 72.8431 32.4901 72.8655C32.1967 72.8818 31.9396 72.6018 31.7189 72.0256C31.6763 71.9133 31.6646 71.7928 31.6848 71.6744C32.0374 69.4266 32.5436 66.9874 33.2033 64.3568C33.2102 64.3276 33.2105 64.2974 33.2039 64.2682C33.1974 64.2389 33.1843 64.2112 33.1654 64.1869C33.1465 64.1625 33.1222 64.1419 33.094 64.1265C33.0659 64.1111 33.0346 64.1011 33.0019 64.0972C29.7978 63.7185 21.2945 62.6038 23.7138 57.8944C24.303 56.7481 25.255 55.4124 26.5698 53.8874C28.1418 52.0672 29.6989 50.3559 31.2412 48.7535C31.4619 48.5234 31.4039 48.4226 31.0672 48.4511C27.8461 48.7179 24.8592 48.9836 22.1066 49.2482C21.1307 49.3419 20.3243 49.2564 19.6873 48.9917C18.3088 48.4236 17.2407 48.0877 15.6131 48.2465C15.1718 48.2913 14.8703 48.1284 14.7088 47.7578C14.677 47.6866 14.6668 47.6143 14.6781 47.541C14.7555 47.0462 15.0717 46.7754 15.6268 46.7286C17.2282 46.5942 18.7523 46.8711 20.1991 47.5593C20.6018 47.7487 21.141 47.7975 21.5845 47.7578C23.6524 47.5827 25.7998 47.4097 28.0269 47.2387C28.2157 47.2244 28.2259 47.1796 28.0576 47.1043C25.876 46.1066 24.1392 44.8697 22.8471 43.3935C17.7048 37.5144 18.145 29.5127 20.1855 22.6288C20.4039 21.8928 20.9499 20.2741 22.1442 20.8483C22.2556 20.9012 22.3443 20.8798 22.4103 20.7841C23.0609 19.817 23.8241 18.9466 24.6999 18.1729C24.7084 18.1652 24.7147 18.1557 24.718 18.1453C24.7213 18.135 24.7215 18.1241 24.7188 18.1138C24.716 18.1036 24.7103 18.0943 24.7021 18.087C24.694 18.0796 24.6838 18.0745 24.6726 18.0721C23.078 17.6608 22.6207 16.7904 23.3009 15.4609C23.3555 15.3509 23.318 15.2776 23.1883 15.241L16.2341 13.326C16.0976 13.2894 15.9759 13.3148 15.869 13.4024C14.6031 14.453 12.8389 13.6376 13.5896 12.0189C13.6487 11.8927 13.6487 11.7664 13.5896 11.6402L11.5252 7.17817C11.5163 7.15914 11.5023 7.14237 11.4844 7.12935C11.4666 7.11632 11.4454 7.10746 11.4227 7.10353C11.4001 7.0996 11.3768 7.10073 11.3548 7.10683C11.3328 7.11292 11.3128 7.12379 11.2966 7.13846C9.57225 8.72252 7.80582 10.5051 5.99733 12.4862C5.86777 12.6277 5.69148 12.728 5.49548 12.7716C5.29949 12.8152 5.09462 12.7997 4.91225 12.7274C4.70069 12.644 4.58923 12.3946 4.57786 11.9792C4.57127 11.8273 4.6257 11.6779 4.73139 11.5577C6.36018 9.68863 7.95485 8.08625 9.51539 6.7506C10.009 6.32913 9.93052 6.21206 9.27992 6.39938L1.54094 8.64108C1.04957 8.7836 0.69584 8.64413 0.479731 8.22267C0.388737 8.04757 0.417173 7.83378 0.565037 7.58131C0.644112 7.44568 0.776656 7.34119 0.936962 7.28812C3.84648 6.32506 6.62179 5.55848 9.26288 4.98838C9.41302 4.9558 9.42439 4.90084 9.297 4.82347C8.07996 4.09456 6.67639 3.35343 5.08628 2.60009C4.70638 2.42092 4.50957 2.12263 4.49592 1.70523C4.49365 1.60954 4.52779 1.52505 4.59831 1.45175C4.91906 1.11987 5.29895 1.04963 5.73799 1.24102C8.28126 2.35881 10.5482 3.74436 12.5386 5.39764C12.6865 5.52184 12.7343 5.69694 12.682 5.92294C12.6569 6.02474 12.6695 6.12247 12.7195 6.21613L14.8863 10.4186C14.9545 10.5509 15.0421 10.5621 15.149 10.4521L15.2821 10.3178C15.3617 10.2363 15.4573 10.1763 15.5687 10.1376C16.6948 9.7436 16.7425 11.2951 16.9131 11.8234C16.945 11.9252 17.0178 11.9914 17.1315 12.022C19.6179 12.6592 22.0634 13.3372 24.4679 14.056C24.8774 14.1781 25.1333 13.9002 25.5155 13.8697C26.8827 13.7679 27.6447 14.3349 27.8017 15.5708C27.8199 15.7133 27.8972 15.7469 28.0337 15.6716C30.8613 14.1323 34.0598 13.0115 37.629 12.309C39.0963 12.0219 42.3072 11.7227 43.0852 13.1733C43.1267 13.2511 43.15 13.3357 43.1536 13.4219C43.1572 13.508 43.1411 13.5939 43.1063 13.6743C43.0714 13.7547 43.0186 13.8279 42.951 13.8893C42.8834 13.9507 42.8025 13.9991 42.7132 14.0315C42.3447 14.1659 42.0285 14.0835 41.7646 13.7842C41.6873 13.6946 41.5872 13.6386 41.4644 13.6162C40.65 13.4635 39.8321 13.4553 39.0109 13.5918C32.903 14.6027 26.8394 16.9818 23.6182 21.8958C23.4999 22.075 23.5341 22.1025 23.7206 21.9783ZM27.3854 61.4218C28.8936 61.884 30.4735 62.2291 32.125 62.4572C37.2753 63.1637 42.4039 63.7358 47.5109 64.1736C48.6005 64.2652 49.7277 64.308 50.8924 64.3018C57.4713 64.256 52.1823 52.6383 50.8071 50.1553C50.7593 50.0699 50.6826 50.0003 50.5882 49.9564C50.4938 49.9125 50.3865 49.8966 50.2816 49.911C46.03 50.5014 42.2446 50.5696 38.9256 50.1156C37.3264 49.8957 35.4304 49.5262 33.2374 49.007C33.1823 48.9942 33.1244 48.9958 33.0705 49.0115C33.0167 49.0272 32.9692 49.0564 32.9337 49.0955C30.693 51.5938 28.6729 53.9098 26.8735 56.0436C26.1501 56.9008 25.5723 57.8119 25.1401 58.777C24.4883 60.2246 26.1638 61.0492 27.3854 61.4218Z" fill="#413E3D"/>
<path d="M41.8977 15.9038C41.2561 17.382 40.5691 18.5629 39.8366 19.4466C36.9089 22.9812 33.3704 25.7054 29.2211 27.6193C27.0555 28.621 25.0252 29.4456 23.1302 30.0931C23.02 30.1314 22.9024 30.148 22.7856 30.142C22.044 30.1074 21.6607 29.9424 21.6357 29.6472C21.6015 29.242 21.796 28.9641 22.2191 28.8134C24.7055 27.9176 26.9383 27.0024 28.9174 26.0678C32.6572 24.2985 35.9967 21.6211 38.9358 18.0356C39.6353 17.1865 40.0516 16.1726 40.6283 15.2655C40.6966 15.157 40.8054 15.0737 40.9354 15.0303C41.1811 14.9489 41.3892 14.953 41.5598 15.0426C41.9466 15.2441 42.0592 15.5312 41.8977 15.9038Z" fill="#413E3D"/>
<path d="M38.6909 28.3945L38.609 28.3956C38.2077 28.4013 37.8874 28.6971 37.8937 29.0563L37.9242 30.7908C37.9305 31.15 38.261 31.4367 38.6623 31.431L38.7442 31.4299C39.1456 31.4242 39.4658 31.1284 39.4595 30.7692L39.4291 29.0347C39.4228 28.6755 39.0923 28.3888 38.6909 28.3945Z" fill="#413E3D"/>
<path d="M48.5084 28.6332L48.4333 28.6334C48.0244 28.6347 47.694 28.9324 47.6955 29.2984L47.7023 31.0637C47.7038 31.4297 48.0364 31.7254 48.4454 31.7241L48.5204 31.7239C48.9294 31.7226 49.2597 31.4249 49.2583 31.0588L49.2514 29.2936C49.25 28.9276 48.9173 28.6319 48.5084 28.6332Z" fill="#413E3D"/>
<path d="M28.1228 34.7419C27.9203 34.858 27.7065 34.8692 27.4813 34.7755C27.3365 34.7156 27.219 34.613 27.1482 34.4847C27.0775 34.3564 27.0577 34.2101 27.0923 34.07C27.3857 32.9186 29.9039 32.1673 30.9652 31.8589C31.0608 31.8315 31.1626 31.8253 31.2618 31.8407C31.361 31.8561 31.4547 31.8927 31.535 31.9474C31.8421 32.1551 31.957 32.4269 31.8796 32.7629C31.8556 32.8692 31.8017 32.9682 31.7228 33.0505C31.644 33.1328 31.5429 33.1957 31.4292 33.2332L29.9415 33.731C29.8277 33.7697 29.7766 33.843 29.7879 33.9509C30.0166 36.327 31.9274 38.3671 34.1112 39.8423C38.2367 42.6307 43.8396 43.3942 48.6611 41.6564C52.2167 40.3737 54.1446 38.1808 55.5948 35.1329C55.6034 35.1148 55.6071 35.0951 55.6054 35.0755C55.6037 35.0558 55.5967 35.0368 55.5851 35.0198C55.5734 35.0029 55.5575 34.9885 55.5384 34.9779C55.5194 34.9673 55.4978 34.9608 55.4754 34.9588C54.9658 34.9221 54.6474 34.7246 54.52 34.3663C54.4848 34.2657 54.4783 34.1588 54.501 34.0555C54.5238 33.9521 54.575 33.8555 54.6501 33.7747C54.7252 33.6938 54.8217 33.6312 54.9307 33.5926C55.0397 33.554 55.1578 33.5407 55.2741 33.5539C56.5048 33.6924 57.6979 34.1036 58.8535 34.7877C58.9404 34.8386 59.014 34.9056 59.0695 34.9841C59.125 35.0626 59.1611 35.1508 59.1753 35.2428C59.1895 35.3348 59.1816 35.4285 59.152 35.5175C59.1224 35.6066 59.0718 35.6889 59.0037 35.7589C58.6466 36.1254 58.1438 36.1061 57.4955 35.7009C57.318 35.5889 57.1872 35.6215 57.1031 35.7987C55.8473 38.3824 54.1685 40.5966 51.5718 42.0198C45.73 45.2175 38.4312 44.5975 33.0193 40.9906C30.7263 39.4605 28.8461 37.3379 28.3821 34.8458C28.3548 34.6931 28.2683 34.6585 28.1228 34.7419Z" fill="#413E3D"/>
</svg>
